<svg width="24" height="24" viewBox="0 0 24 24" fill="none" xmlns="http://www.w3.org/2000/svg">
<g clip-path="url(#clip0_1_605)">
<path d="M0.131836 1.83022C0.131836 0.89238 0.916353 0.131836 1.88396 0.131836H22.0891C23.0567 0.131836 23.8412 0.89238 23.8412 1.83022V22.1428C23.8412 23.0809 23.0567 23.8412 22.0891 23.8412H1.88396C0.916353 23.8412 0.131836 23.0809 0.131836 22.1428V1.83022Z" fill="white"/>
<path d="M5.52837 7.81176C6.77706 7.81176 7.55447 6.98957 7.55447 5.96216C7.53129 4.91157 6.77733 4.1123 5.55208 4.1123C4.3271 4.1123 3.52625 4.91157 3.52625 5.96216C3.52625 6.98957 4.30339 7.81176 5.50519 7.81176H5.52837Z" fill="#0F0F0F"/>
<path d="M7.31896 19.9786V9.27246H3.73779V19.9786H7.31896Z" fill="#0F0F0F"/>
<path d="M9.30054 19.9786H12.8817V13.9999C12.8817 13.6799 12.9049 13.3603 12.9995 13.1316C13.2584 12.4923 13.8475 11.8303 14.8369 11.8303C16.1328 11.8303 16.6512 12.8121 16.6512 14.2512V19.9786H20.2319V13.84C20.2319 10.5515 18.4653 9.02148 16.1091 9.02148C14.1773 9.02148 13.329 10.0945 12.8577 10.8252H12.8817V9.27254H9.30054C9.34743 10.2773 9.30054 19.9786 9.30054 19.9786Z" fill="#0F0F0F"/>
</g>
<defs>
<clipPath id="clip0_1_605">
<rect width="24" height="24" fill="white"/>
</clipPath>
</defs>
</svg>
