<svg width="18" height="14" viewBox="0 0 18 14" fill="none" xmlns="http://www.w3.org/2000/svg">
<path d="M16.75 2.375V11.125C16.75 12.1605 15.9105 13 14.875 13H2.375C1.33947 13 0.5 12.1605 0.5 11.125V2.375M16.75 2.375C16.75 1.33947 15.9105 0.5 14.875 0.5H2.375C1.33947 0.5 0.5 1.33947 0.5 2.375M16.75 2.375V2.57726C16.75 3.22837 16.4122 3.83287 15.8577 4.17412L9.60768 8.02027C9.00504 8.39113 8.24496 8.39113 7.64232 8.02027L1.39232 4.17412C0.837791 3.83287 0.5 3.22837 0.5 2.57726V2.375" stroke="white" stroke-linecap="round" stroke-linejoin="round"/>
</svg>
