<svg width="18" height="18" viewBox="0 0 18 18" fill="none" xmlns="http://www.w3.org/2000/svg">
<path d="M0.5 4.25C0.5 11.1536 6.09644 16.75 13 16.75H14.875C15.9105 16.75 16.75 15.9105 16.75 14.875V13.732C16.75 13.3018 16.4572 12.9268 16.0399 12.8225L12.3539 11.901C11.988 11.8095 11.6028 11.9462 11.3765 12.248L10.568 13.326C10.3333 13.6389 9.92751 13.7772 9.56029 13.6427C6.80449 12.6332 4.6168 10.4455 3.6073 7.68972C3.47278 7.32249 3.61113 6.91665 3.924 6.682L5.00202 5.87349C5.30378 5.64717 5.44051 5.26204 5.34903 4.89611L4.42753 1.21012C4.32319 0.792779 3.94821 0.5 3.51802 0.5H2.375C1.33947 0.5 0.5 1.33947 0.5 2.375V4.25Z" stroke="white" stroke-linecap="round" stroke-linejoin="round"/>
</svg>
