<svg width="14" height="12" viewBox="0 0 14 12" fill="none" xmlns="http://www.w3.org/2000/svg">
<path fill-rule="evenodd" clip-rule="evenodd" d="M0 5.6C6.71765e-09 5.0201 0.45667 4.55 1.02 4.55H10.0476L7.11303 1.80687C6.70696 1.40494 6.6943 0.740247 7.08475 0.322237C7.4752 -0.0957729 8.1209 -0.108807 8.52697 0.293126L13.287 4.84313C13.487 5.04109 13.6 5.31438 13.6 5.6C13.6 5.88562 13.487 6.15891 13.287 6.35687L8.52697 10.9069C8.1209 11.3088 7.4752 11.2958 7.08475 10.8778C6.6943 10.4598 6.70696 9.79506 7.11303 9.39312L10.0476 6.65H1.02C0.45667 6.65 -6.71765e-09 6.1799 0 5.6Z" fill="white"/>
</svg>
