<svg width="53" height="19" viewBox="0 0 53 19" fill="none" xmlns="http://www.w3.org/2000/svg">
<path d="M11.27 18.12V17.36C13.04 17.14 13.26 16.87 12.88 15.83C12.53 14.77 11.98 13.4 11.41 11.68H5.52C5.08 12.91 4.67 13.97 4.29 15.09C3.69 16.86 4.07 17.08 6.31 17.35V18.11H0V17.35C1.72 17.13 2.16 16.94 3.11 14.48L8.76 0.16L9.63 0C11.35 4.67 13.23 9.82 14.95 14.54C15.82 16.91 16.07 17.13 18.01 17.35V18.11H11.27V18.12ZM8.54 3.57C7.67 5.92 6.74 8.4 5.92 10.55H11.02L8.54 3.57Z" fill="white"/>
<path d="M35.2801 18.3299C34.9301 18.3299 34.6301 18.2999 34.2701 18.2799C32.2801 18.1399 31.2101 17.6199 30.0101 15.9299C29.0001 14.5399 28.0201 12.8199 27.1501 11.4299C26.6001 10.5599 26.2501 10.3899 24.8601 10.3899H23.9001V14.6699C23.9001 16.9899 24.2001 17.1299 26.3801 17.3399V18.0999H19.1001V17.3399C21.3601 17.0899 21.5601 16.9899 21.5601 14.6699V3.78988C21.5601 1.46988 21.2601 1.38988 19.1001 1.13988V0.379883H26.0601C28.0501 0.379883 29.3901 0.629883 30.4301 1.30988C31.5501 2.01988 32.2801 3.24988 32.2801 4.90988C32.2801 7.25988 30.7801 8.72988 28.7601 9.59988C29.2501 10.4499 30.4201 12.2699 31.2401 13.4999C32.2501 14.9499 32.7701 15.6299 33.4001 16.3099C34.1401 17.0999 34.7601 17.3999 35.3901 17.5599L35.2801 18.3199V18.3299ZM25.2101 9.46988C26.6301 9.46988 27.5301 9.24988 28.2101 8.67988C29.2701 7.88988 29.7101 6.79988 29.7101 5.31988C29.7101 2.39988 27.7701 1.33988 25.6701 1.33988C24.8801 1.33988 24.4201 1.44988 24.2201 1.60988C23.9701 1.79988 23.8901 2.06988 23.8901 2.77988V9.45988H25.2001L25.2101 9.46988Z" fill="white"/>
<path d="M52.55 13.75C52.17 15.06 51.46 17.02 51.05 17.87C50.26 18.03 48.13 18.52 46.06 18.52C39.54 18.52 36.21 14.18 36.21 9.41C36.21 3.84 40.44 0 46.55 0C48.9 0 50.81 0.49 51.71 0.63C51.82 1.86 52.01 3.49 52.23 4.86L51.38 5.05C50.83 3.22 50.18 2.1 48.79 1.53C48.08 1.2 46.96 1.01 45.93 1.01C41.43 1.01 39.05 4.34 39.05 8.84C39.05 14.11 41.78 17.49 46.2 17.49C48.98 17.49 50.35 16.21 51.74 13.48L52.56 13.75H52.55Z" fill="white"/>
</svg>
