<?xml version="1.0" encoding="UTF-8"?>
<svg version="1.1" xmlns="http://www.w3.org/2000/svg" width="500" height="280">
<path d="M0 0 C0.66 0.33 1.32 0.66 2 1 C2.6835712 3.31339599 3.26788689 5.5914743 3.8125 7.9375 C6.22085204 17.46246455 9.1163409 25.49762277 17.0078125 31.85546875 C19.09577992 33.27502123 19.09577992 33.27502123 22.3125 33 C23.6428125 32.505 23.6428125 32.505 25 32 C25.99 31.67 26.98 31.34 28 31 C27.87431641 30.07767578 27.87431641 30.07767578 27.74609375 29.13671875 C27.64425781 28.32847656 27.54242188 27.52023438 27.4375 26.6875 C27.33308594 25.88699219 27.22867187 25.08648437 27.12109375 24.26171875 C27 22 27 22 28 19 C27.93887061 17.20501876 27.80613421 15.41186453 27.625 13.625 C27.53476562 12.68914062 27.44453125 11.75328125 27.3515625 10.7890625 C27.0197107 8.15637152 26.55643308 5.593544 26 3 C27.36125 3.0309375 27.36125 3.0309375 28.75 3.0625 C31.81590438 3.14458496 31.81590438 3.14458496 33.9375 2.4375 C37.11428506 1.7636365 39.8538271 2.34702072 43 3 C44.29940391 5.59880781 43.74335617 6.54814423 43 9.3125 C42.13628162 12.88253598 41.84642324 15.42391204 43 19 C42.34 19 41.68 19 41 19 C41.495 20.98 41.495 20.98 42 23 C42.66 23 43.32 23 44 23 C44 24.98 44 26.96 44 29 C43.34 29 42.68 29 42 29 C43.66545339 31.16641665 43.66545339 31.16641665 46 33 C49.04016436 32.92584965 50.45068442 32.50862553 52.6875 30.4375 C53.120625 29.963125 53.55375 29.48875 54 29 C54.66 29 55.32 29 56 29 C56.2475 28.484375 56.495 27.96875 56.75 27.4375 C58 25 58 25 59.9375 22 C63.60666648 15.6747951 64.60943244 8.09579333 66 1 C66.99 1 67.98 1 69 1 C73.55826531 13.95808754 73.84846099 25.87399912 70 39 C67.88250851 43.25187786 65.34643722 46.65356278 62 50 C61.82477324 52.26645766 61.73271744 54.53972854 61.6875 56.8125 C61.26541186 63.59358808 61.26541186 63.59358808 59 67.0625 C55.087855 69.58909365 51.12969913 71.84269448 47 74 C52.28 74.33 57.56 74.66 63 75 C63.70802175 84.20428271 64.26410496 92.82065318 63 102 C64.32 102 65.64 102 67 102 C67.33 103.32 67.66 104.64 68 106 C68.66 106 69.32 106 70 106 C70.4125 105.360625 70.825 104.72125 71.25 104.0625 C73 102 73 102 75.875 101.125 C79.25772932 100.98969083 81.05595809 101.36442116 84 103 C87.30692004 107.96038006 86.36896392 113.609665 86.375 119.4375 C86.39949219 120.67822266 86.42398438 121.91894531 86.44921875 123.19726562 C86.45308594 124.38900391 86.45695312 125.58074219 86.4609375 126.80859375 C86.46915527 127.89970459 86.47737305 128.99081543 86.48583984 130.11499023 C85.88984633 133.65411355 84.78539366 134.81249599 82 137 C79.25910772 137.72804951 76.76978794 137.57443241 74 137 C71.03141843 134.79259319 70.17134209 133.51402627 69 130 C68.91893314 128.44578271 68.89243102 126.88832973 68.90234375 125.33203125 C68.90717773 123.99301758 68.90717773 123.99301758 68.91210938 122.62695312 C68.92467773 121.23379883 68.92467773 121.23379883 68.9375 119.8125 C68.94201172 118.87212891 68.94652344 117.93175781 68.95117188 116.96289062 C68.96295374 114.64186288 68.97940442 112.32096356 69 110 C68.34 110 67.68 110 67 110 C67.00523682 110.78238037 67.01047363 111.56476074 67.01586914 112.37084961 C67.03657106 115.89305833 67.04963838 119.4152543 67.0625 122.9375 C67.07087891 124.16919922 67.07925781 125.40089844 67.08789062 126.66992188 C67.09111328 127.83974609 67.09433594 129.00957031 67.09765625 130.21484375 C67.10289307 131.29886475 67.10812988 132.38288574 67.11352539 133.49975586 C67 136 67 136 66 137 C64.02 137 62.04 137 60 137 C60 125.78 60 114.56 60 103 C57.525 103.495 57.525 103.495 55 104 C55.48984375 104.52335937 55.9796875 105.04671875 56.484375 105.5859375 C59.49093825 110.37474185 58.23611781 116.52796986 58 122 C57.95359375 123.46759766 57.95359375 123.46759766 57.90625 124.96484375 C57.67934235 128.73718343 57.15724687 131.6256027 55.6875 135.125 C53 137 53 137 41 137 C41 125.78 41 114.56 41 103 C40.01 103 39.02 103 38 103 C38.01571045 103.79172607 38.0314209 104.58345215 38.04760742 105.39916992 C38.11006699 108.99520695 38.14902635 112.5911297 38.1875 116.1875 C38.21263672 117.43337891 38.23777344 118.67925781 38.26367188 119.96289062 C38.27333984 121.16494141 38.28300781 122.36699219 38.29296875 123.60546875 C38.3086792 124.71043701 38.32438965 125.81540527 38.34057617 126.95385742 C37.84921382 131.34864456 36.08164776 133.91835224 33 137 C25.92125984 137.68503937 25.92125984 137.68503937 22.5625 135.1875 C19.86168242 131.40635539 19.88112892 128.31954073 19.90234375 123.80078125 C19.90556641 122.59228516 19.90878906 121.38378906 19.91210938 120.13867188 C19.92048828 118.87603516 19.92886719 117.61339844 19.9375 116.3125 C19.94201172 115.03826172 19.94652344 113.76402344 19.95117188 112.45117188 C19.96297127 109.30073436 19.97943403 106.15039051 20 103 C19.34 103 18.68 103 18 103 C18 104.98 18 106.96 18 109 C16.35 109 14.7 109 13 109 C13 118.24 13 127.48 13 137 C10.69 137 8.38 137 6 137 C5.67 128.09 5.34 119.18 5 110 C3.68 109.67 2.36 109.34 1 109 C1 106.69 1 104.38 1 102 C1.66 102 2.32 102 3 102 C3 93.09 3 84.18 3 75 C13.395 74.505 13.395 74.505 24 74 C19.81612422 71.82297411 19.81612422 71.82297411 15.62353516 69.6628418 C12.49618405 68.00761051 11.00092676 67.00139014 9 64 C8.90415021 62.1478437 8.87016394 60.29212847 8.875 58.4375 C8.48026778 52.04438607 6.20344793 48.85887065 1.91015625 44.25390625 C-3.64900348 37.69432514 -4.37022919 28.40869402 -4.3125 20.125 C-4.31048584 19.34068604 -4.30847168 18.55637207 -4.30639648 17.74829102 C-4.07025127 4.07025127 -4.07025127 4.07025127 0 0 Z M27 45 C26.67 45.99 26.34 46.98 26 48 C28.31 48.33 30.62 48.66 33 49 C32.67 48.01 32.34 47.02 32 46 C30.35 45.67 28.7 45.34 27 45 Z M38.8125 45.9375 C38.214375 46.288125 37.61625 46.63875 37 47 C37 47.66 37 48.32 37 49 C38.98 49 40.96 49 43 49 C43.33 48.01 43.66 47.02 44 46 C41.10813214 44.66695302 41.10813214 44.66695302 38.8125 45.9375 Z M21 58 C21.62759865 60.92879371 22.58622659 63.36095629 24 66 C23.74438677 63.6568787 23.40729228 61.32156597 23 59 C22.34 58.67 21.68 58.34 21 58 Z M48 58 C45.8480563 61.22791555 45.79913557 62.28400809 46 66 C47.9451 63.08235 48.45276317 61.37462715 49 58 C48.67 58 48.34 58 48 58 Z M21 85 C22 88 22 88 22 88 Z M25 85 C25 88.63 25 92.26 25 96 C25.33 96 25.66 96 26 96 C26 92.37 26 88.74 26 85 C25.67 85 25.34 85 25 85 Z M40 85 C40 88.63 40 92.26 40 96 C40.33 96 40.66 96 41 96 C41 92.37 41 88.74 41 85 C40.67 85 40.34 85 40 85 Z M49 89 C50 91 50 91 50 91 Z M27 103 C27 111.58 27 120.16 27 129 C28.32 129 29.64 129 31 129 C31 120.42 31 111.84 31 103 C29.68 103 28.36 103 27 103 Z M47 109 C47 115.6 47 122.2 47 129 C47.99 129.33 48.98 129.66 50 130 C51.19341752 129.02667739 51.19341752 129.02667739 51.11352539 127.23413086 C51.10828857 126.48526611 51.10305176 125.73640137 51.09765625 124.96484375 C51.09443359 124.15595703 51.09121094 123.34707031 51.08789062 122.51367188 C51.07951172 121.66353516 51.07113281 120.81339844 51.0625 119.9375 C51.05573242 118.65649414 51.05573242 118.65649414 51.04882812 117.34960938 C51.03700373 115.23304337 51.01906769 113.11651315 51 111 C49.68 110.34 48.36 109.68 47 109 Z M76 109 C75.67 109.99 75.34 110.98 75 112 C75.99 113.485 75.99 113.485 77 115 C77.33 113.02 77.66 111.04 78 109 C77.34 109 76.68 109 76 109 Z M79 111 C77.41727399 112.58272601 77.65264253 114.38034003 77.4375 116.5625 C77.35371094 117.38878906 77.26992188 118.21507812 77.18359375 119.06640625 C77.12300781 119.70449219 77.06242187 120.34257812 77 121 C76.34 121 75.68 121 75 121 C74.59250325 125.25731568 74.59250325 125.25731568 76.5 128.875 C76.995 129.24625 77.49 129.6175 78 130 C78.66 129.67 79.32 129.34 80 129 C80 123.06 80 117.12 80 111 C79.67 111 79.34 111 79 111 Z " fill="#040404" transform="translate(235,63)"/>
<path d="M0 0 C0.886875 -0.00257812 1.77375 -0.00515625 2.6875 -0.0078125 C5 0.125 5 0.125 7 1.125 C7.80422972 3.39459721 8.49147055 5.61659558 9.12890625 7.93359375 C9.32346909 8.61551285 9.51803192 9.29743195 9.7184906 10.00001526 C10.34060809 12.18547926 10.95192486 14.37378605 11.5625 16.5625 C12.17865926 18.74702101 12.79702029 20.93089616 13.41722107 23.11427307 C13.80289366 24.47459424 14.18583926 25.83569206 14.56581116 27.19761658 C15.56082791 30.74368405 15.56082791 30.74368405 17 34.125 C17.02505615 33.13056885 17.0501123 32.1361377 17.07592773 31.11157227 C17.16984882 27.43451253 17.27010619 23.7576485 17.37231445 20.08081055 C17.41572146 18.487107 17.45739219 16.8933552 17.49731445 15.29956055 C17.55487807 13.01336092 17.61861149 10.72740551 17.68359375 8.44140625 C17.70030624 7.72473282 17.71701874 7.00805939 17.73423767 6.26966858 C17.88612829 1.23887171 17.88612829 1.23887171 19 0.125 C20.47648876 0.02676004 21.95775417 -0.00473519 23.4375 0 C24.64212891 -0.00386719 24.64212891 -0.00386719 25.87109375 -0.0078125 C28 0.125 28 0.125 30 1.125 C30.02312589 9.9738239 30.04091634 18.82263747 30.05181217 27.67148495 C30.05704046 31.77994285 30.06413713 35.88838014 30.07543945 39.99682617 C30.08627025 43.95846828 30.09227724 47.92009052 30.09487724 51.88174629 C30.09673114 53.39648311 30.1003511 54.91121879 30.10573006 56.42594719 C30.11294307 58.54041813 30.11399083 60.65480594 30.11352539 62.76928711 C30.115746 63.97507919 30.11796661 65.18087128 30.12025452 66.42320251 C30 69.125 30 69.125 29 70.125 C25.04 70.125 21.08 70.125 17 70.125 C13.37 58.905 9.74 47.685 6 36.125 C5.67 47.345 5.34 58.565 5 70.125 C1.37 70.125 -2.26 70.125 -6 70.125 C-7.41697193 67.29105613 -7.11945929 64.91626262 -7.11352539 61.74755859 C-7.11367142 61.09377731 -7.11381744 60.43999603 -7.1139679 59.7664032 C-7.11327036 57.60204773 -7.1054854 55.43777796 -7.09765625 53.2734375 C-7.09579151 51.77413988 -7.09436787 50.27484166 -7.09336853 48.77554321 C-7.08954779 44.82668378 -7.07972128 40.87786104 -7.06866455 36.92901611 C-7.05844091 32.90059913 -7.05386887 28.87217622 -7.04882812 24.84375 C-7.03809862 16.93748315 -7.0210275 9.03124614 -7 1.125 C-4.51245214 -0.11877393 -2.77344699 -0.00806235 0 0 Z " fill="#B11C1C" transform="translate(381,87.875)"/>
<path d="M0 0 C0.78568359 0.02707031 1.57136719 0.05414063 2.38085938 0.08203125 C8.63425565 0.40647524 12.9226105 1.52094844 17.40625 6.19140625 C19.81280356 11.3620909 19.64449597 16.05369343 19.5625 21.6875 C19.57796875 22.74646484 19.5934375 23.80542969 19.609375 24.89648438 C19.56615672 33.5563467 19.56615672 33.5563467 16.859375 37.28125 C14.07104968 42.66393019 16.05378224 46.74913678 17.8125 52.3125 C18.41792159 54.33270975 19.01708488 56.35480765 19.609375 58.37890625 C19.88620117 59.26650635 20.16302734 60.15410645 20.44824219 61.06860352 C21.0625 63.75 21.0625 63.75 21.0625 69.75 C17.1025 69.75 13.1425 69.75 9.0625 69.75 C6.31298805 61.47476987 4.24610253 53.39341319 3.0625 44.75 C1.4125 44.75 -0.2375 44.75 -1.9375 44.75 C-1.93226318 45.43626465 -1.92702637 46.1225293 -1.92163086 46.82958984 C-1.90089044 49.92805064 -1.88784924 53.02649686 -1.875 56.125 C-1.86662109 57.20523438 -1.85824219 58.28546875 -1.84960938 59.3984375 C-1.84638672 60.4296875 -1.84316406 61.4609375 -1.83984375 62.5234375 C-1.83460693 63.47653809 -1.82937012 64.42963867 -1.82397461 65.41162109 C-1.9375 67.75 -1.9375 67.75 -2.9375 69.75 C-6.5675 69.75 -10.1975 69.75 -13.9375 69.75 C-13.9375 46.98 -13.9375 24.21 -13.9375 0.75 C-8.97841525 -0.24181695 -4.98306193 -0.26847517 0 0 Z M-1.9375 13.75 C-1.9375 19.69 -1.9375 25.63 -1.9375 31.75 C0.3725 31.75 2.6825 31.75 5.0625 31.75 C7.43748298 29.81386889 7.43748298 29.81386889 7.29296875 26.30859375 C7.28897911 24.93482696 7.27423177 23.56105886 7.25 22.1875 C7.24935547 21.48947266 7.24871094 20.79144531 7.24804688 20.07226562 C7.5173138 16.62149957 7.5173138 16.62149957 6.0625 13.75 C3.4225 13.75 0.7825 13.75 -1.9375 13.75 Z " fill="#8B1919" transform="translate(94.9375,88.25)"/>
<path d="M0 0 C0.61875 0.33 1.2375 0.66 1.875 1 C1.875 1.66 1.875 2.32 1.875 3 C2.473125 3.20625 3.07125 3.4125 3.6875 3.625 C6.79512038 5.57836138 7.49775697 7.61949437 8.875 11 C9.16796875 14.6484375 9.16796875 14.6484375 9.0625 18.375 C9.02189453 20.24285156 9.02189453 20.24285156 8.98046875 22.1484375 C8.94566406 23.08945313 8.91085937 24.03046875 8.875 25 C4.915 25 0.955 25 -3.125 25 C-3.46679688 20.75195312 -3.46679688 20.75195312 -3.80859375 16.50390625 C-3.85711468 14.06359221 -3.85711468 14.06359221 -5.125 13 C-7.105 13 -9.085 13 -11.125 13 C-11.125 26.86 -11.125 40.72 -11.125 55 C-9.475 55.33 -7.825 55.66 -6.125 56 C-3.35457891 53.22957891 -3.72703894 51.23466195 -3.5 47.375 C-3.42523438 46.18648437 -3.35046875 44.99796875 -3.2734375 43.7734375 C-3.19996094 42.40058594 -3.19996094 42.40058594 -3.125 41 C-4.775 41 -6.425 41 -8.125 41 C-9.30806728 38.63386544 -9.25854608 37.13219264 -9.25 34.5 C-9.25386719 33.30890625 -9.25386719 33.30890625 -9.2578125 32.09375 C-9.125 30 -9.125 30 -8.125 28 C-2.515 28 3.095 28 8.875 28 C8.94422608 32.00229288 9.00384797 36.00304204 9.03979492 40.00561523 C9.05479409 41.36441117 9.07520038 42.72315941 9.10131836 44.08178711 C9.36176127 57.98739592 9.36176127 57.98739592 5.875 64 C5.215 64 4.555 64 3.875 64 C3.875 64.66 3.875 65.32 3.875 66 C-1.19923208 68.95228048 -5.1032376 70.86025177 -11.125 70 C-16.85809871 68.24272836 -20.08149609 65.47427055 -23.1081543 60.36407471 C-24.96329141 56.05104796 -24.79718071 51.77888438 -24.71875 47.1484375 C-24.71879028 46.13077301 -24.71883057 45.11310852 -24.71887207 44.06460571 C-24.71353606 41.92484318 -24.69603615 39.78507987 -24.66699219 37.64550781 C-24.62503395 34.37764435 -24.62593852 31.11183832 -24.6328125 27.84375 C-24.62232218 25.75779824 -24.60938493 23.67185704 -24.59375 21.5859375 C-24.59354858 20.61393402 -24.59334717 19.64193054 -24.59313965 18.64047241 C-24.48847148 12.6235761 -23.88040845 7.95172254 -19.58984375 3.35546875 C-13.31202038 -1.44521971 -7.70020853 -2.46406673 0 0 Z " fill="#B11B1B" transform="translate(442.125,89)"/>
<path d="M0 0 C0.80566406 0.00257812 1.61132812 0.00515625 2.44140625 0.0078125 C3.64603516 0.00394531 3.64603516 0.00394531 4.875 0 C7.00390625 0.1328125 7.00390625 0.1328125 9.00390625 1.1328125 C9.33390625 6.7428125 9.66390625 12.3528125 10.00390625 18.1328125 C13.30390625 12.1928125 16.60390625 6.2528125 20.00390625 0.1328125 C30.00390625 0.1328125 30.00390625 0.1328125 32.00390625 1.1328125 C31.33137034 4.46326035 30.07463332 7.10637082 28.46484375 10.08984375 C27.71847656 11.51200195 27.71847656 11.51200195 26.95703125 12.96289062 C25.90806745 14.94527642 24.84820388 16.9219343 23.77734375 18.89257812 C20.92217629 24.38357075 19.10356486 27.92249684 21.00390625 34.1328125 C23.39185078 41.51707174 26.61539463 48.58799714 29.8671875 55.625 C34.00390625 64.7513692 34.00390625 64.7513692 34.00390625 70.1328125 C29.71390625 70.1328125 25.42390625 70.1328125 21.00390625 70.1328125 C17.67057292 62.1328125 14.33723958 54.1328125 11.00390625 46.1328125 C9.35742532 47.77929343 9.79813236 49.74031732 9.72265625 52.0078125 C9.68527344 52.99265625 9.64789063 53.9775 9.609375 54.9921875 C9.57457031 56.02859375 9.53976562 57.065 9.50390625 58.1328125 C9.43533776 60.17462982 9.36264767 62.21631435 9.28515625 64.2578125 C9.2397168 65.62292969 9.2397168 65.62292969 9.19335938 67.015625 C9.00390625 69.1328125 9.00390625 69.1328125 8.00390625 70.1328125 C6.15103123 70.20507752 4.29556747 70.2166247 2.44140625 70.1953125 C0.92353516 70.18177734 0.92353516 70.18177734 -0.625 70.16796875 C-1.40746094 70.15636719 -2.18992187 70.14476562 -2.99609375 70.1328125 C-3.01921941 61.15360473 -3.03700998 52.17440713 -3.04790592 43.19517612 C-3.05313426 39.02618422 -3.06023101 34.85721263 -3.0715332 30.68823242 C-3.08236383 26.66823564 -3.08837096 22.64825845 -3.09097099 18.62824821 C-3.09282493 17.09118275 -3.09644494 15.55411841 -3.10182381 14.01706123 C-3.10903659 11.87145763 -3.11008459 9.72593595 -3.10961914 7.58032227 C-3.11183975 6.35676529 -3.11406036 5.13320831 -3.11634827 3.87257385 C-2.95500184 0.1966146 -2.95500184 0.1966146 0 0 Z " fill="#A51B1B" transform="translate(314.99609375,87.8671875)"/>
<path d="M0 0 C1.30066406 -0.00128906 2.60132813 -0.00257812 3.94140625 -0.00390625 C4.96258545 -0.00076416 4.96258545 -0.00076416 6.00439453 0.00244141 C8.08503515 0.0077901 10.16545989 0.0024957 12.24609375 -0.00390625 C14.19708984 -0.00197266 14.19708984 -0.00197266 16.1875 0 C17.39083984 0.00112793 18.59417969 0.00225586 19.83398438 0.00341797 C22.59375 0.1328125 22.59375 0.1328125 23.59375 1.1328125 C23.69226171 2.96397133 23.72347629 4.79901183 23.71875 6.6328125 C23.72261719 8.13328125 23.72261719 8.13328125 23.7265625 9.6640625 C23.59375 12.1328125 23.59375 12.1328125 22.59375 13.1328125 C21.25107587 13.21913124 19.90400678 13.23987723 18.55859375 13.23046875 C17.74970703 13.22724609 16.94082031 13.22402344 16.10742188 13.22070312 C15.25728516 13.21232422 14.40714844 13.20394531 13.53125 13.1953125 C12.67724609 13.19080078 11.82324219 13.18628906 10.94335938 13.18164062 C8.82679337 13.16981623 6.71026315 13.15188019 4.59375 13.1328125 C4.59375 18.4128125 4.59375 23.6928125 4.59375 29.1328125 C9.21375 29.1328125 13.83375 29.1328125 18.59375 29.1328125 C18.71875 39.8828125 18.71875 39.8828125 17.59375 42.1328125 C13.30375 42.1328125 9.01375 42.1328125 4.59375 42.1328125 C4.59375 47.0828125 4.59375 52.0328125 4.59375 57.1328125 C5.88152344 57.12121094 7.16929687 57.10960937 8.49609375 57.09765625 C10.17447772 57.0882798 11.85286326 57.07917945 13.53125 57.0703125 C14.80645508 57.05774414 14.80645508 57.05774414 16.10742188 57.04492188 C16.91630859 57.04169922 17.72519531 57.03847656 18.55859375 57.03515625 C19.3074585 57.02991943 20.05632324 57.02468262 20.82788086 57.01928711 C22.59375 57.1328125 22.59375 57.1328125 23.59375 58.1328125 C23.69229655 59.77622117 23.72347411 61.4239586 23.71875 63.0703125 C23.72261719 64.41416016 23.72261719 64.41416016 23.7265625 65.78515625 C23.59375 68.1328125 23.59375 68.1328125 22.59375 70.1328125 C18.4820244 70.15746996 14.37032722 70.17565209 10.25854492 70.18774414 C8.85879772 70.1927833 7.4590558 70.19961466 6.05932617 70.20825195 C4.05129223 70.2203357 2.04322043 70.22551057 0.03515625 70.23046875 C-1.17454834 70.23570557 -2.38425293 70.24094238 -3.63061523 70.24633789 C-6.40625 70.1328125 -6.40625 70.1328125 -7.40625 69.1328125 C-7.50573193 67.02143349 -7.53424638 64.90668964 -7.53564453 62.79296875 C-7.53827301 61.80029495 -7.53827301 61.80029495 -7.54095459 60.78756714 C-7.54537217 58.5901226 -7.54243547 56.39275792 -7.5390625 54.1953125 C-7.53973557 52.67456039 -7.54070561 51.15380838 -7.54196167 49.63305664 C-7.54343851 46.44188414 -7.54128452 43.25073958 -7.53662109 40.05957031 C-7.5309238 35.9601672 -7.53420288 31.86082954 -7.54019356 27.76142883 C-7.54379954 24.61999006 -7.54266042 21.47856692 -7.54006577 18.33712769 C-7.5393966 16.82518506 -7.54022457 15.31324104 -7.54254532 13.80130005 C-7.54507245 11.69171363 -7.54123044 9.58223463 -7.53564453 7.47265625 C-7.53484894 6.26988037 -7.53405334 5.06710449 -7.53323364 3.82788086 C-7.29407514 -1.24795796 -4.45589338 0.00417665 0 0 Z " fill="#A01A1A" transform="translate(130.40625,87.8671875)"/>
<path d="M0 0 C4.22763616 1.53732224 7.18491096 3.48113871 10 7 C11.82413624 11.08259064 12.26564519 13.69680634 11 18 C7.32589215 19.17571451 3.83070817 19.07366746 0 19 C-0.66 17.02 -1.32 15.04 -2 13 C-4.31 13 -6.62 13 -9 13 C-8.0977234 19.81420835 -6.98096251 24.14356155 -2 29 C-1.34 29.33 -0.68 29.66 0 30 C0 30.66 0 31.32 0 32 C0.66 32 1.32 32 2 32 C2 32.66 2 33.32 2 34 C2.59296875 34.24105469 3.1859375 34.48210937 3.796875 34.73046875 C8.12540429 37.22474538 10.16322979 41.48189964 12 46 C13.04934749 52.14198498 13.03662799 57.997076 10 63.5625 C7.0842655 67.45838254 3.6291546 69.59266619 -1 71 C-6.45114766 71.66943919 -10.21141135 70.66032703 -15 68 C-19.43142045 63.77000776 -21.91716717 59.07712303 -23 53 C-22.67 51.68 -22.34 50.36 -22 49 C-17.05 48.505 -17.05 48.505 -12 48 C-10.68 50.97 -9.36 53.94 -8 57 C-6.00045254 57.04254356 -3.99958364 57.04080783 -2 57 C-0.67228145 55.86692461 -0.67228145 55.86692461 -0.5 52.9375 C-1.33543729 46.35843135 -5.8828087 43.00371244 -10.55078125 38.5859375 C-17.16060144 32.26009477 -21.95130594 26.86212731 -22.5 17.4375 C-22.18961011 11.31532703 -19.83079128 6.70002047 -15.375 2.5625 C-10.38536987 -0.7201514 -5.86901605 -0.46487256 0 0 Z " fill="#A11A1A" transform="translate(220,88)"/>
<path d="M0 0 C16.74082588 0.19953309 16.74082588 0.19953309 22.3125 4.5 C27.19117918 10.02061065 27.08063049 15.43538806 27.125 22.5 C27.15787109 23.41201172 27.19074219 24.32402344 27.22460938 25.26367188 C27.27596741 31.77680401 25.98356135 36.20611279 21.6875 41.1875 C17.9988368 44.44145473 14.83941481 45.38864098 9.953125 45.28125 C8.75091309 45.26094727 8.75091309 45.26094727 7.52441406 45.24023438 C6.91823242 45.22283203 6.31205078 45.20542969 5.6875 45.1875 C5.69273682 45.87376465 5.69797363 46.5600293 5.70336914 47.26708984 C5.72410956 50.36555064 5.73715076 53.46399686 5.75 56.5625 C5.75837891 57.64273438 5.76675781 58.72296875 5.77539062 59.8359375 C5.77861328 60.8671875 5.78183594 61.8984375 5.78515625 62.9609375 C5.79039307 63.91403809 5.79562988 64.86713867 5.80102539 65.84912109 C5.6875 68.1875 5.6875 68.1875 4.6875 70.1875 C1.0575 70.1875 -2.5725 70.1875 -6.3125 70.1875 C-6.46663293 62.81533258 -6.61550257 55.44310211 -6.7554636 48.07065105 C-6.82067692 44.64622914 -6.88807066 41.22188086 -6.96069336 37.79760742 C-7.04435128 33.84826557 -7.11808317 29.89876647 -7.19140625 25.94921875 C-7.21844131 24.73731369 -7.24547638 23.52540863 -7.27333069 22.27677917 C-7.39544627 15.22574389 -7.42121714 8.17212779 -6.3125 1.1875 C-4.58996933 -0.53503067 -2.34802873 0.01522716 0 0 Z M5.6875 14.1875 C4.64886227 20.41932639 4.85461126 25.93442761 5.6875 32.1875 C6.96625 32.249375 8.245 32.31125 9.5625 32.375 C10.28179687 32.40980469 11.00109375 32.44460937 11.7421875 32.48046875 C12.38414062 32.38378906 13.02609375 32.28710938 13.6875 32.1875 C15.99571663 28.72517506 15.95750989 27.26951684 15.9375 23.1875 C15.94265625 22.135625 15.9478125 21.08375 15.953125 20 C15.89217017 16.98099621 15.89217017 16.98099621 13.6875 14.1875 C11.71002878 13.82452064 11.71002878 13.82452064 9.5625 14 C8.28375 14.061875 7.005 14.12375 5.6875 14.1875 Z " fill="#98191A" transform="translate(165.3125,87.8125)"/>
<path d="M0 0 C1.20462891 -0.02126953 1.20462891 -0.02126953 2.43359375 -0.04296875 C4.5625 0.1875 4.5625 0.1875 6.5625 2.1875 C6.80973816 4.92016602 6.80973816 4.92016602 6.80541992 8.44140625 C6.80849655 9.75616943 6.81157318 11.07093262 6.81474304 12.42553711 C6.80784509 13.86702651 6.80057811 15.30851418 6.79296875 16.75 C6.79177697 18.22208618 6.79132378 19.69417313 6.7915802 21.16625977 C6.79001484 24.2531408 6.78172134 27.33990594 6.76831055 30.42675781 C6.75132061 34.3881594 6.74749619 38.34943355 6.74825573 42.31086731 C6.74798409 45.35112734 6.74250389 48.39135938 6.73525429 51.43161011 C6.73206695 52.89248442 6.73010006 54.3533619 6.72936058 55.8142395 C6.72719774 57.85403581 6.71766162 59.89382031 6.70776367 61.93359375 C6.70395187 63.09560303 6.70014008 64.2576123 6.69621277 65.45483398 C6.5625 68.1875 6.5625 68.1875 5.5625 70.1875 C1.9325 70.1875 -1.6975 70.1875 -5.4375 70.1875 C-5.46062566 61.20829223 -5.47841623 52.22909463 -5.48931217 43.24986362 C-5.49454051 39.08087172 -5.50163726 34.91190013 -5.51293945 30.74291992 C-5.52377008 26.72292314 -5.52977721 22.70294595 -5.53237724 18.68293571 C-5.53423118 17.14587025 -5.53785119 15.60880591 -5.54323006 14.07174873 C-5.55044284 11.92614513 -5.55149084 9.78062345 -5.55102539 7.63500977 C-5.553246 6.41145279 -5.55546661 5.18789581 -5.55775452 3.92726135 C-5.36512808 -0.46135113 -3.9779773 0.03182382 0 0 Z " fill="#8A1818" transform="translate(361.4375,87.8125)"/>
<path d="M0 0 C4.49996683 -0.44117322 6.34611117 -0.52867608 9.9375 2.375 C12 5 12 5 12 7 C12.75925781 6.92265625 13.51851562 6.8453125 14.30078125 6.765625 C17 7 17 7 18.73046875 8.609375 C19.45169922 9.66898438 19.45169922 9.66898438 20.1875 10.75 C20.67605469 11.44609375 21.16460937 12.1421875 21.66796875 12.859375 C25.59602159 19.17190566 25.84024467 24.59700225 25 32 C23.33549473 36.93158074 20.63941846 39.96173748 16.125 42.5 C11.28654087 44.57623861 6.9999975 44.66666583 2 43 C-2.42406874 39.15804557 -7.40228034 33.95989277 -8.3125 27.9296875 C-8.3125 26 -8.3125 26 -8 23 C-5.03 23 -2.06 23 1 23 C1.74869792 25.05078125 2.49739583 27.1015625 3.24609375 29.15234375 C3.85386948 30.98305678 3.85386948 30.98305678 5 32 C7.95817107 32.25005386 7.95817107 32.25005386 11 32 C13.17398016 30.23085027 13.17398016 30.23085027 13.265625 28.01171875 C13.27839811 21.74458504 13.27839811 21.74458504 11 16 C10.08734375 15.55720703 10.08734375 15.55720703 9.15625 15.10546875 C5.20166057 13.07802526 2.45388783 9.65041165 0 6 C-0.4375 2.5 -0.4375 2.5 0 0 Z " fill="#8B1717" transform="translate(207,115)"/>
<path d="M0 0 C6.27 0 12.54 0 19 0 C19.33 1.65 19.66 3.3 20 5 C19.01 5.495 19.01 5.495 18 6 C18 6.66 18 7.32 18 8 C16.68 7.67 15.36 7.34 14 7 C14.66 5.68 15.32 4.36 16 3 C15.01 3 14.02 3 13 3 C12.67 3.99 12.34 4.98 12 6 C11.34 6 10.68 6 10 6 C9.67 13.92 9.34 21.84 9 30 C12.3 30 15.6 30 19 30 C19.66 30.66 20.32 31.32 21 32 C20.62875 32.763125 20.2575 33.52625 19.875 34.3125 C19.58625 35.199375 19.2975 36.08625 19 37 C19.66 37.99 20.32 38.98 21 40 C20.34 40.66 19.68 41.32 19 42 C17.515 41.505 17.515 41.505 16 41 C13.36 40.67 10.72 40.34 8 40 C8 47.92 8 55.84 8 64 C5.36 64 2.72 64 0 64 C0 42.88 0 21.76 0 0 Z " fill="#B21B1C" transform="translate(83,91)"/>
<path d="M0 0 C2.97 0 5.94 0 9 0 C9 21.78 9 43.56 9 66 C5.7 66 2.4 66 -1 66 C-2.07421875 62.72851562 -2.07421875 62.72851562 -3.1484375 59.45703125 C-3.97540424 56.97672819 -3.97540424 56.97672819 -5.0546875 54.5390625 C-7.1224775 48.9850811 -7.51638091 43.03109826 -6.0625 37.3125 C-5.711875 36.549375 -5.36125 35.78625 -5 35 C-4.34 35.33 -3.68 35.66 -3 36 C-2.34 37.98 -1.68 39.96 -1 42 C-0.67 28.14 -0.34 14.28 0 0 Z " fill="#B21B1D" transform="translate(400,90)"/>
<path d="M0 0 C0.84339766 2.91851903 1.10613832 5.45688037 1.05004883 8.48974609 C1.03706253 9.37101166 1.02407623 10.25227722 1.01069641 11.1602478 C0.99298691 12.1051004 0.9752774 13.049953 0.95703125 14.0234375 C0.93464284 16.0338443 0.91318746 18.04426167 0.89257812 20.0546875 C0.85549189 23.21708764 0.81242602 26.37894819 0.75317383 29.54101562 C0.69858955 32.59773535 0.6695636 35.65385151 0.64453125 38.7109375 C0.62074905 39.65174164 0.59696686 40.59254578 0.57246399 41.56185913 C0.54905712 47.4475016 1.32915644 50.39343345 5 55 C5 55.66 5 56.32 5 57 C8.56045177 58.18681726 11.43808337 58.09689832 15.1875 58.0625 C16.45980469 58.05347656 17.73210937 58.04445312 19.04296875 58.03515625 C20.01878906 58.02355469 20.99460937 58.01195312 22 58 C22.33 55.69 22.66 53.38 23 51 C22.01 51.66 21.02 52.32 20 53 C16.37316225 53.37198336 14.12649899 52.85274014 11 51 C11.33 49.68 11.66 48.36 12 47 C12.78375 47.20625 13.5675 47.4125 14.375 47.625 C15.24125 47.74875 16.1075 47.8725 17 48 C19.77042109 45.22957891 19.39796106 43.23466195 19.625 39.375 C19.69976562 38.18648437 19.77453125 36.99796875 19.8515625 35.7734375 C19.92503906 34.40058594 19.92503906 34.40058594 20 33 C18.35 33 16.7 33 15 33 C13.81693272 30.63386544 13.86645392 29.13219264 13.875 26.5 C13.87113281 25.30890625 13.87113281 25.30890625 13.8671875 24.09375 C14 22 14 22 15 20 C20.61 20 26.22 20 32 20 C32.06922608 24.00229288 32.12884797 28.00304204 32.16479492 32.00561523 C32.17979409 33.36441117 32.20020038 34.72315941 32.22631836 36.08178711 C32.48676127 49.98739592 32.48676127 49.98739592 29 56 C28.34 56 27.68 56 27 56 C27 56.66 27 57.32 27 58 C21.92576792 60.95228048 18.0217624 62.86025177 12 62 C6.27319212 60.24465659 3.03678052 57.47666443 0.01239014 52.37075806 C-1.84526772 48.02059977 -1.63157839 43.70534976 -1.5234375 39.04296875 C-1.51873444 38.01818924 -1.51403137 36.99340973 -1.50918579 35.93757629 C-1.48795814 32.68684766 -1.43138427 29.43778806 -1.375 26.1875 C-1.35848035 23.98504142 -1.34413552 21.78256539 -1.33203125 19.58007812 C-1.29815962 15.56253016 -1.26339708 11.54516133 -1.19287109 7.52807617 C-1.18001068 6.72391769 -1.16715027 5.91975922 -1.15390015 5.0912323 C-1 3 -1 3 0 0 Z " fill="#A61B1C" transform="translate(419,97)"/>
<path d="M0 0 C2.31 0 4.62 0 7 0 C8.32 3.3 9.64 6.6 11 10 C11.33 6.7 11.66 3.4 12 0 C14.31 0 16.62 0 19 0 C20.19266912 7.20051729 19.94598846 14.16309904 19.625 21.4375 C19.58117187 22.63310547 19.53734375 23.82871094 19.4921875 25.06054688 C19.13166401 33.86833599 19.13166401 33.86833599 18 35 C16.00041636 35.04080783 13.99954746 35.04254356 12 35 C10.11304374 30.71146306 8.41807378 26.47238653 7 22 C7.01160156 22.77085937 7.02320313 23.54171875 7.03515625 24.3359375 C7.04869141 25.84027344 7.04869141 25.84027344 7.0625 27.375 C7.07410156 28.37273437 7.08570313 29.37046875 7.09765625 30.3984375 C7 33 7 33 6 35 C4.02 35 2.04 35 0 35 C0 23.45 0 11.9 0 0 Z " fill="#362221" transform="translate(125,165)"/>
<path d="M0 0 C0.886875 -0.00257812 1.77375 -0.00515625 2.6875 -0.0078125 C5 0.125 5 0.125 7 1.125 C6.67 2.445 6.34 3.765 6 5.125 C5.34 4.795 4.68 4.465 4 4.125 C1.03 3.795 -1.94 3.465 -5 3.125 C-4.67 24.245 -4.34 45.365 -4 67.125 C-1.36 67.455 1.28 67.785 4 68.125 C4 54.595 4 41.065 4 27.125 C6 28.125 6 28.125 7.02148438 30.74536133 C7.55225586 32.45888794 7.55225586 32.45888794 8.09375 34.20703125 C8.48433594 35.44904297 8.87492187 36.69105469 9.27734375 37.97070312 C9.68538193 39.29281883 10.09292906 40.61508617 10.5 41.9375 C11.2976851 44.50792442 12.10113773 47.0764091 12.90625 49.64453125 C13.26009766 50.79026611 13.61394531 51.93600098 13.97851562 53.11645508 C14.82502149 55.60964144 15.79487335 57.79725809 17 60.125 C17.51520982 62.78853755 17.72949913 65.41999131 18 68.125 C21.3 68.125 24.6 68.125 28 68.125 C28 46.345 28 24.565 28 2.125 C25.03 2.125 22.06 2.125 19 2.125 C19 16.315 19 30.505 19 45.125 C15.64949295 41.77449295 15.25560633 40.20759784 14.25 35.6875 C13.98703125 34.55441406 13.7240625 33.42132813 13.453125 32.25390625 C13 29.125 13 29.125 14 25.125 C15.485 29.58 15.485 29.58 17 34.125 C17.02505615 33.13056885 17.0501123 32.1361377 17.07592773 31.11157227 C17.16984882 27.43451253 17.27010619 23.7576485 17.37231445 20.08081055 C17.41572146 18.487107 17.45739219 16.8933552 17.49731445 15.29956055 C17.55487807 13.01336092 17.61861149 10.72740551 17.68359375 8.44140625 C17.70030624 7.72473282 17.71701874 7.00805939 17.73423767 6.26966858 C17.88612829 1.23887171 17.88612829 1.23887171 19 0.125 C20.47648876 0.02676004 21.95775417 -0.00473519 23.4375 0 C24.64212891 -0.00386719 24.64212891 -0.00386719 25.87109375 -0.0078125 C28 0.125 28 0.125 30 1.125 C30.02312589 9.9738239 30.04091634 18.82263747 30.05181217 27.67148495 C30.05704046 31.77994285 30.06413713 35.88838014 30.07543945 39.99682617 C30.08627025 43.95846828 30.09227724 47.92009052 30.09487724 51.88174629 C30.09673114 53.39648311 30.1003511 54.91121879 30.10573006 56.42594719 C30.11294307 58.54041813 30.11399083 60.65480594 30.11352539 62.76928711 C30.115746 63.97507919 30.11796661 65.18087128 30.12025452 66.42320251 C30 69.125 30 69.125 29 70.125 C25.04 70.125 21.08 70.125 17 70.125 C13.37 58.905 9.74 47.685 6 36.125 C5.67 47.345 5.34 58.565 5 70.125 C1.37 70.125 -2.26 70.125 -6 70.125 C-7.41697193 67.29105613 -7.11945929 64.91626262 -7.11352539 61.74755859 C-7.11367142 61.09377731 -7.11381744 60.43999603 -7.1139679 59.7664032 C-7.11327036 57.60204773 -7.1054854 55.43777796 -7.09765625 53.2734375 C-7.09579151 51.77413988 -7.09436787 50.27484166 -7.09336853 48.77554321 C-7.08954779 44.82668378 -7.07972128 40.87786104 -7.06866455 36.92901611 C-7.05844091 32.90059913 -7.05386887 28.87217622 -7.04882812 24.84375 C-7.03809862 16.93748315 -7.0210275 9.03124614 -7 1.125 C-4.51245214 -0.11877393 -2.77344699 -0.00806235 0 0 Z " fill="#360E0F" transform="translate(381,87.875)"/>
<path d="M0 0 C3.30692004 4.96038006 2.36896392 10.609665 2.375 16.4375 C2.39949219 17.67822266 2.42398437 18.91894531 2.44921875 20.19726562 C2.45501953 21.98487305 2.45501953 21.98487305 2.4609375 23.80859375 C2.46915527 24.89970459 2.47737305 25.99081543 2.48583984 27.11499023 C1.88984633 30.65411355 0.78539366 31.81249599 -2 34 C-4.74089228 34.72804951 -7.23021206 34.57443241 -10 34 C-12.96858157 31.79259319 -13.82865791 30.51402627 -15 27 C-15.25455755 23.56694432 -15.23130883 20.12901094 -15.25 16.6875 C-15.270625 15.74970703 -15.29125 14.81191406 -15.3125 13.84570312 C-15.34275126 8.47988628 -15.08541285 4.6058687 -12 0 C-7.73550411 -2.84299726 -4.58978756 -1.81859507 0 0 Z M-8 6 C-8.33 6.99 -8.66 7.98 -9 9 C-8.01 10.485 -8.01 10.485 -7 12 C-6.67 10.02 -6.34 8.04 -6 6 C-6.66 6 -7.32 6 -8 6 Z M-5 8 C-6.58272601 9.58272601 -6.34735747 11.38034003 -6.5625 13.5625 C-6.64628906 14.38878906 -6.73007812 15.21507812 -6.81640625 16.06640625 C-6.87699219 16.70449219 -6.93757813 17.34257812 -7 18 C-7.66 18 -8.32 18 -9 18 C-9.40749675 22.25731568 -9.40749675 22.25731568 -7.5 25.875 C-7.005 26.24625 -6.51 26.6175 -6 27 C-5.34 26.67 -4.68 26.34 -4 26 C-4 20.06 -4 14.12 -4 8 C-4.33 8 -4.66 8 -5 8 Z " fill="#201514" transform="translate(319,166)"/>
<path d="M0 0 C2.4228932 1.8990244 3.71291245 3.24915564 4.8125 6.125 C5 8 5 8 4 10 C2.02 10 0.04 10 -2 10 C-2.33 9.01 -2.66 8.02 -3 7 C-3.99 7 -4.98 7 -6 7 C-4.29339864 11.01553261 -2.3884393 13.76317893 0.625 16.9375 C3.06275517 19.65474303 4.02003357 21.0611551 5.1875 24.625 C4.93790054 29.11779031 3.16184665 31.83815335 0 35 C-3.05325078 35.43352445 -5.95065922 35.46995094 -9 35 C-12.74756687 31.81456816 -13.55245138 28.81114769 -14 24 C-11.69 24 -9.38 24 -7 24 C-6.67 25.32 -6.34 26.64 -6 28 C-5.01 28 -4.02 28 -3 28 C-4.33067122 23.26872454 -7.19143943 20.30327896 -10.44140625 16.76953125 C-13.4102627 13.39887467 -13.33094351 10.53697672 -13.2890625 6.1953125 C-13 4 -13 4 -11.1875 1.5 C-7.20648185 -1.22984102 -4.57189141 -1.21295078 0 0 Z " fill="#372422" transform="translate(197,165)"/>
<path d="M0 0 C2.56142407 2.63065175 3.83859061 4.51577183 5 8 C4.67 8.66 4.34 9.32 4 10 C2.02 10 0.04 10 -2 10 C-2.33 9.01 -2.66 8.02 -3 7 C-3.99 7 -4.98 7 -6 7 C-4.30155183 12.05088251 -1.43745776 14.95935623 2.22265625 18.71875 C4.20892994 21.26816502 4.77513811 22.79571801 5 26 C3.71699712 29.60462715 2.71705736 32.28294264 0 35 C-3.47692963 36.00444634 -5.31575291 36.28642902 -8.6875 34.875 C-11.28223596 32.77116003 -12.59794731 31.02548211 -14 28 C-14 26.68 -14 25.36 -14 24 C-7.6 23.50769231 -7.6 23.50769231 -4.5625 26 C-3.7890625 26.99 -3.7890625 26.99 -3 28 C-3.18415432 25.05908413 -3.18415432 25.05908413 -4 22 C-5.95163118 20.56362302 -5.95163118 20.56362302 -8 20 C-8 19.34 -8 18.68 -8 18 C-8.66 18 -9.32 18 -10 18 C-13.50038413 13.69183491 -13.34249153 10.30861876 -13 5 C-12 2 -12 2 -9.3125 0.25 C-5.5090183 -1.18527611 -3.82452407 -1.33026924 0 0 Z " fill="#382321" transform="translate(230,165)"/>
<path d="M0 0 C2.4228932 1.8990244 3.71291245 3.24915564 4.8125 6.125 C5 8 5 8 4 10 C2.02 10 0.04 10 -2 10 C-2.33 9.34 -2.66 8.68 -3 8 C-3.99 7.67 -4.98 7.34 -6 7 C-3.94035159 10.96086233 -2.15315189 14.02158747 1.1875 17 C3.57034305 19.28003003 4.02972108 20.09615644 5.0625 23.4375 C4.98777893 27.69660104 4.10100603 30.30512733 2 34 C-0.47113238 36.04507508 -1.72387717 36.00587495 -4.9375 35.9375 C-8.82872568 34.74630847 -10.48037213 33.16753218 -13 30 C-13.875 27.25 -13.875 27.25 -14 25 C-13 24 -13 24 -10.0625 23.75 C-9.051875 23.8325 -8.04125 23.915 -7 24 C-6.34 24.99 -5.68 25.98 -5 27 C-4.34 27 -3.68 27 -3 27 C-4.07593636 23.17444851 -5.85029407 21.02889952 -8.5625 18.25 C-11.82024684 14.64466929 -13.08423656 11.91204492 -13.27734375 7.05078125 C-12.83588945 3.78650651 -11.4128787 2.14478107 -9 0 C-5.41563853 -1.19478716 -3.63093708 -0.96330984 0 0 Z " fill="#372421" transform="translate(177,165)"/>
<path d="M0 0 C8.58 0 17.16 0 26 0 C26 2.64 26 5.28 26 8 C20.39 8 14.78 8 9 8 C9 14.27 9 20.54 9 27 C7.68 27.33 6.36 27.66 5 28 C4.01 28.66 3.02 29.32 2 30 C1.74984127 33.58357241 1.74984127 33.58357241 2 37 C1.01 37.495 1.01 37.495 0 38 C0 25.46 0 12.92 0 0 Z " fill="#B41C1C" transform="translate(125,91)"/>
<path d="M0 0 C1.670625 0.061875 1.670625 0.061875 3.375 0.125 C3.375 0.785 3.375 1.445 3.375 2.125 C4.179375 2.434375 4.98375 2.74375 5.8125 3.0625 C8.375 4.125 8.375 4.125 9.375 5.125 C9.65606102 8.86737002 9.60685411 12.62333779 9.625 16.375 C9.645625 17.42558594 9.66625 18.47617188 9.6875 19.55859375 C9.69265625 20.57566406 9.6978125 21.59273437 9.703125 22.640625 C9.71714355 24.03716309 9.71714355 24.03716309 9.73144531 25.46191406 C9.28718211 28.78110794 8.54208946 30.56100771 6.375 33.125 C3.45703125 33.83203125 3.45703125 33.83203125 0.1875 33.9375 C-0.89917969 33.98519531 -1.98585938 34.03289062 -3.10546875 34.08203125 C-4.35263672 34.10330078 -4.35263672 34.10330078 -5.625 34.125 C-5.674377 29.60434572 -5.71070823 25.08384783 -5.73486328 20.56298828 C-5.74493118 19.02454902 -5.75858646 17.48612893 -5.77587891 15.94775391 C-5.80009317 13.73855867 -5.81147491 11.52961605 -5.8203125 9.3203125 C-5.83063507 8.63067413 -5.84095764 7.94103577 -5.85159302 7.23049927 C-5.85199478 5.52699094 -5.74691026 3.82414057 -5.625 2.125 C-3.625 0.125 -3.625 0.125 0 0 Z M0.375 7.125 C0.375 13.725 0.375 20.325 0.375 27.125 C1.365 27.455 2.355 27.785 3.375 28.125 C4.56841752 27.15167739 4.56841752 27.15167739 4.48852539 25.35913086 C4.48328857 24.61026611 4.47805176 23.86140137 4.47265625 23.08984375 C4.46943359 22.28095703 4.46621094 21.47207031 4.46289062 20.63867188 C4.45451172 19.78853516 4.44613281 18.93839844 4.4375 18.0625 C4.43073242 16.78149414 4.43073242 16.78149414 4.42382812 15.47460938 C4.41200373 13.35804337 4.39406769 11.24151315 4.375 9.125 C3.055 8.465 1.735 7.805 0.375 7.125 Z " fill="#2E201E" transform="translate(281.625,164.875)"/>
<path d="M0 0 C5.28 0 10.56 0 16 0 C16 2.31 16 4.62 16 7 C13.03 7 10.06 7 7 7 C7 8.98 7 10.96 7 13 C9.97 13.495 9.97 13.495 13 14 C14.125 18.75 14.125 18.75 13 21 C11.02 21 9.04 21 7 21 C7.33 22.65 7.66 24.3 8 26 C10.64 26.66 13.28 27.32 16 28 C16 30.31 16 32.62 16 35 C11.05 35 6.1 35 1 35 C0.505 17.675 0.505 17.675 0 0 Z " fill="#372520" transform="translate(146,165)"/>
<path d="M0 0 C0.66 0.33 1.32 0.66 2 1 C2.11693501 4.85390817 2.1874962 8.70735512 2.25 12.5625 C2.30027344 14.19155273 2.30027344 14.19155273 2.3515625 15.85351562 C2.46181102 24.92145606 2.46181102 24.92145606 -0.1875 28.5546875 C-2.62901951 33.19567933 -1.62334465 35.60431143 -0.21875 40.49804688 C0.1009375 41.50931641 0.420625 42.52058594 0.75 43.5625 C1.35542159 45.58270975 1.95458488 47.60480765 2.546875 49.62890625 C2.82370117 50.51650635 3.10052734 51.40410645 3.38574219 52.31860352 C4 55 4 55 4 61 C0.04 61 -3.92 61 -8 61 C-10.74951195 52.72476987 -12.81639747 44.64341319 -14 36 C-15.65 36 -17.3 36 -19 36 C-19 43.59 -19 51.18 -19 59 C-19.33 59 -19.66 59 -20 59 C-20 50.75 -20 42.5 -20 34 C-10 34 -10 34 -6.875 36.3125 C-5 39 -5 39 -5 42 C-4.01 41.505 -4.01 41.505 -3 41 C-3.11859375 40.20335937 -3.2371875 39.40671875 -3.359375 38.5859375 C-3.48828125 37.52632812 -3.6171875 36.46671875 -3.75 35.375 C-3.88921875 34.33085937 -4.0284375 33.28671875 -4.171875 32.2109375 C-4 29 -4 29 -2.03125 26.34375 C0.98629119 21.37641296 0.432125 16.812904 0.25 11.125 C0.22292969 9.52011719 0.22292969 9.52011719 0.1953125 7.8828125 C0.14837439 5.25427822 0.08272933 2.62761087 0 0 Z " fill="#6C1313" transform="translate(112,97)"/>
<path d="M0 0 C1.30066406 -0.00128906 2.60132813 -0.00257812 3.94140625 -0.00390625 C4.96258545 -0.00076416 4.96258545 -0.00076416 6.00439453 0.00244141 C8.08503515 0.0077901 10.16545989 0.0024957 12.24609375 -0.00390625 C14.19708984 -0.00197266 14.19708984 -0.00197266 16.1875 0 C17.39083984 0.00112793 18.59417969 0.00225586 19.83398438 0.00341797 C22.59375 0.1328125 22.59375 0.1328125 23.59375 1.1328125 C23.69226171 2.96397133 23.72347629 4.79901183 23.71875 6.6328125 C23.72261719 8.13328125 23.72261719 8.13328125 23.7265625 9.6640625 C23.59375 12.1328125 23.59375 12.1328125 22.59375 13.1328125 C21.25107587 13.21913124 19.90400678 13.23987723 18.55859375 13.23046875 C17.74970703 13.22724609 16.94082031 13.22402344 16.10742188 13.22070312 C15.25728516 13.21232422 14.40714844 13.20394531 13.53125 13.1953125 C12.67724609 13.19080078 11.82324219 13.18628906 10.94335938 13.18164062 C8.82679337 13.16981623 6.71026315 13.15188019 4.59375 13.1328125 C4.59375 18.4128125 4.59375 23.6928125 4.59375 29.1328125 C9.21375 29.1328125 13.83375 29.1328125 18.59375 29.1328125 C18.59375 32.7628125 18.59375 36.3928125 18.59375 40.1328125 C18.26375 40.1328125 17.93375 40.1328125 17.59375 40.1328125 C17.59375 36.8328125 17.59375 33.5328125 17.59375 30.1328125 C12.97375 30.1328125 8.35375 30.1328125 3.59375 30.1328125 C3.59375 23.8628125 3.59375 17.5928125 3.59375 11.1328125 C9.20375 11.1328125 14.81375 11.1328125 20.59375 11.1328125 C20.59375 8.4928125 20.59375 5.8528125 20.59375 3.1328125 C12.01375 3.1328125 3.43375 3.1328125 -5.40625 3.1328125 C-5.40625 24.5828125 -5.40625 46.0328125 -5.40625 68.1328125 C3.50375 68.1328125 12.41375 68.1328125 21.59375 68.1328125 C21.59375 65.1628125 21.59375 62.1928125 21.59375 59.1328125 C22.58375 58.6378125 22.58375 58.6378125 23.59375 58.1328125 C23.62073189 59.75772204 23.64013757 61.38275883 23.65625 63.0078125 C23.66785156 63.91273438 23.67945313 64.81765625 23.69140625 65.75 C23.59375 68.1328125 23.59375 68.1328125 22.59375 70.1328125 C18.4820244 70.15746996 14.37032722 70.17565209 10.25854492 70.18774414 C8.85879772 70.1927833 7.4590558 70.19961466 6.05932617 70.20825195 C4.05129223 70.2203357 2.04322043 70.22551057 0.03515625 70.23046875 C-1.17454834 70.23570557 -2.38425293 70.24094238 -3.63061523 70.24633789 C-6.40625 70.1328125 -6.40625 70.1328125 -7.40625 69.1328125 C-7.50573193 67.02143349 -7.53424638 64.90668964 -7.53564453 62.79296875 C-7.53827301 61.80029495 -7.53827301 61.80029495 -7.54095459 60.78756714 C-7.54537217 58.5901226 -7.54243547 56.39275792 -7.5390625 54.1953125 C-7.53973557 52.67456039 -7.54070561 51.15380838 -7.54196167 49.63305664 C-7.54343851 46.44188414 -7.54128452 43.25073958 -7.53662109 40.05957031 C-7.5309238 35.9601672 -7.53420288 31.86082954 -7.54019356 27.76142883 C-7.54379954 24.61999006 -7.54266042 21.47856692 -7.54006577 18.33712769 C-7.5393966 16.82518506 -7.54022457 15.31324104 -7.54254532 13.80130005 C-7.54507245 11.69171363 -7.54123044 9.58223463 -7.53564453 7.47265625 C-7.53484894 6.26988037 -7.53405334 5.06710449 -7.53323364 3.82788086 C-7.29407514 -1.24795796 -4.45589338 0.00417665 0 0 Z " fill="#330C0C" transform="translate(130.40625,87.8671875)"/>
<path d="M0 0 C1.39456452 0.00667256 2.78911118 0.01863093 4.18359375 0.03515625 C4.89451172 0.03966797 5.60542969 0.04417969 6.33789062 0.04882812 C8.09899388 0.06064761 9.86005411 0.07858362 11.62109375 0.09765625 C11.62109375 2.40765625 11.62109375 4.71765625 11.62109375 7.09765625 C8.65109375 7.09765625 5.68109375 7.09765625 2.62109375 7.09765625 C2.72723211 9.54990319 2.72723211 9.54990319 3.62109375 12.09765625 C4.44609375 12.40703125 5.27109375 12.71640625 6.12109375 13.03515625 C6.94609375 13.38578125 7.77109375 13.73640625 8.62109375 14.09765625 C9.49609375 17.16015625 9.49609375 17.16015625 9.62109375 20.09765625 C9.29109375 20.42765625 8.96109375 20.75765625 8.62109375 21.09765625 C6.64109375 21.09765625 4.66109375 21.09765625 2.62109375 21.09765625 C2.62109375 25.71765625 2.62109375 30.33765625 2.62109375 35.09765625 C0.64109375 35.09765625 -1.33890625 35.09765625 -3.37890625 35.09765625 C-3.54615325 30.27404025 -3.70674933 25.45026714 -3.86108398 20.6262207 C-3.91457584 18.98390691 -3.96991056 17.34165209 -4.02709961 15.69946289 C-4.10881104 13.34404219 -4.18397264 10.98849143 -4.2578125 8.6328125 C-4.28484756 7.89426529 -4.31188263 7.15571808 -4.33973694 6.39479065 C-4.39185005 4.62980009 -4.39076745 2.86337615 -4.37890625 1.09765625 C-3.37890625 0.09765625 -3.37890625 0.09765625 0 0 Z " fill="#372420" transform="translate(83.37890625,164.90234375)"/>
<path d="M0 0 C1.65 1.65 3.3 3.3 5 5 C4.01 5.495 4.01 5.495 3 6 C3.66 6.33 4.32 6.66 5 7 C5 7.66 5 8.32 5 9 C5.66 9 6.32 9 7 9 C7.08115993 12.06303578 7.14057409 15.12390815 7.1875 18.1875 C7.21263672 19.05181641 7.23777344 19.91613281 7.26367188 20.80664062 C7.36033901 29.21668126 7.36033901 29.21668126 4 33 C3.01 33 2.02 33 1 33 C1 33.66 1 34.32 1 35 C-3.455 35.495 -3.455 35.495 -8 36 C-8.33 34.35 -8.66 32.7 -9 31 C-7.02 30.01 -5.04 29.02 -3 28 C-2.80364026 24.54210946 -2.61941748 21.08367803 -2.4375 17.625 C-2.38142578 16.64015625 -2.32535156 15.6553125 -2.26757812 14.640625 C-2.21923828 13.69960937 -2.17089844 12.75859375 -2.12109375 11.7890625 C-2.0739624 10.91975098 -2.02683105 10.05043945 -1.97827148 9.15478516 C-1.84314147 6.94857369 -1.84314147 6.94857369 -3 5 C-2.34 5 -1.68 5 -1 5 C-0.67 3.35 -0.34 1.7 0 0 Z " fill="#B01C1B" transform="translate(184,92)"/>
<path d="M0 0 C5.28 0 10.56 0 16 0 C16.33 2.31 16.66 4.62 17 7 C15.35 7 13.7 7 12 7 C12.00523682 7.77714355 12.01047363 8.55428711 12.01586914 9.35498047 C12.03660156 12.86164549 12.04964821 16.36829763 12.0625 19.875 C12.07087891 21.09832031 12.07925781 22.32164062 12.08789062 23.58203125 C12.09111328 24.74863281 12.09433594 25.91523438 12.09765625 27.1171875 C12.10289307 28.19597168 12.10812988 29.27475586 12.11352539 30.38623047 C12 33 12 33 11 35 C9.02 35 7.04 35 5 35 C4.67 25.76 4.34 16.52 4 7 C2.35 6.67 0.7 6.34 -1 6 C-0.67 4.02 -0.34 2.04 0 0 Z " fill="#312220" transform="translate(106,165)"/>
<path d="M0 0 C1.65 0 3.3 0 5 0 C5 8.58 5 17.16 5 26 C6.32 26 7.64 26 9 26 C9.33 17.42 9.66 8.84 10 0 C11.32 0 12.64 0 14 0 C14.09895097 3.93254008 14.1715042 7.86459746 14.21972656 11.7980957 C14.24971281 13.79339014 14.30053786 15.78833582 14.3515625 17.78320312 C14.36445313 19.03681641 14.37734375 20.29042969 14.390625 21.58203125 C14.41157227 22.73936768 14.43251953 23.8967041 14.45410156 25.08911133 C14 28 14 28 12.19824219 29.8815918 C9.02302745 31.49705811 6.50602506 31.31872955 3 31 C2.01 30.34 1.02 29.68 0 29 C-0.34057617 26.11083984 -0.34057617 26.11083984 -0.29296875 22.4609375 C-0.28330078 21.15898437 -0.27363281 19.85703125 -0.26367188 18.515625 C-0.23860388 17.13541077 -0.21320902 15.75520244 -0.1875 14.375 C-0.17245517 12.98699337 -0.15876641 11.59897133 -0.14648438 10.2109375 C-0.1110257 6.80690491 -0.06160298 3.40364378 0 0 Z " fill="#3A2321" transform="translate(257,167)"/>
<path d="M0 0 C1.98 0 3.96 0 6 0 C9.62870159 9.41002278 9.62870159 9.41002278 8 14 C7.01 14 6.02 14 5 14 C5.15597656 15.18078125 5.31195313 16.3615625 5.47265625 17.578125 C5.66965686 19.13536788 5.86625013 20.69266233 6.0625 22.25 C6.16626953 23.02730469 6.27003906 23.80460937 6.37695312 24.60546875 C6.51713867 25.73662109 6.51713867 25.73662109 6.66015625 26.890625 C6.74918213 27.58188477 6.83820801 28.27314453 6.92993164 28.98535156 C7.00606235 31.17430848 6.6249336 32.91005813 6 35 C4.02 35 2.04 35 0 35 C0 23.45 0 11.9 0 0 Z " fill="#281C1A" transform="translate(125,165)"/>
<path d="M0 0 C0.97582031 0.00902344 1.95164063 0.01804688 2.95703125 0.02734375 C3.69308594 0.03894531 4.42914063 0.05054688 5.1875 0.0625 C5.1875 2.0425 5.1875 4.0225 5.1875 6.0625 C3.5375 6.0625 1.8875 6.0625 0.1875 6.0625 C0.1875 15.3025 0.1875 24.5425 0.1875 34.0625 C-1.4625 33.7325 -3.1125 33.4025 -4.8125 33.0625 C-4.8125 24.1525 -4.8125 15.2425 -4.8125 6.0625 C-6.7925 6.0625 -8.7725 6.0625 -10.8125 6.0625 C-10.8125 4.4125 -10.8125 2.7625 -10.8125 1.0625 C-7.13862505 0.20951624 -3.7677607 -0.04539471 0 0 Z " fill="#31201E" transform="translate(246.8125,164.9375)"/>
<path d="M0 0 C3.0625 1.625 3.0625 1.625 5 4 C5.3125 7.25 5.3125 7.25 5 10 C5.66 10 6.32 10 7 10 C8.71466036 13.42932071 8.05404056 17.21716065 8 21 C4.7 21 1.4 21 -2 21 C-2.33503764 18.70858188 -2.66798042 16.41685737 -3 14.125 C-3.185625 12.84882812 -3.37125 11.57265625 -3.5625 10.2578125 C-4 7 -4 7 -4 5 C-4.33 5.66 -4.66 6.32 -5 7 C-8.0831351 5.80100302 -11.06279492 4.52299523 -14 3 C-10.1640975 -0.8359025 -5.1236948 -0.6370969 0 0 Z " fill="#B01C1C" transform="translate(442,91)"/>
<path d="M0 0 C1.98 0 3.96 0 6 0 C6 11.55 6 23.1 6 35 C4.02 35 2.04 35 0 35 C0 23.45 0 11.9 0 0 Z " fill="#281B19" transform="translate(97,165)"/>
<path d="M0 0 C0.33 0 0.66 0 1 0 C1.144375 0.928125 1.28875 1.85625 1.4375 2.8125 C2.81947745 7.93516829 6.56293046 11.36087179 10.1015625 15.15625 C12.44600016 18.66808254 12.35860404 20.86068477 12 25 C13.99789249 22.00316126 14.74756206 20.5341312 15 17 C13.5608232 13.80182934 11.95237847 11.95578001 9.375 9.5625 C6.65910199 6.63218899 6.27349906 4.92015317 6 1 C6.66 1.99 7.32 2.98 8 4 C9.13198082 5.30382369 10.27912952 6.59456467 11.4375 7.875 C18.02805913 15.42868885 18.02805913 15.42868885 17.9375 20.5 C16.87411215 24.46998132 16.18367026 26.37347204 13 29 C9.85554401 29.71097075 7.14375472 29.71659115 4 29 C0.25243313 25.81456816 -0.55245138 22.81114769 -1 18 C1.31 18 3.62 18 6 18 C6.33 19.32 6.66 20.64 7 22 C7.99 22 8.98 22 10 22 C8.66932878 17.26872454 5.80856057 14.30327896 2.55859375 10.76953125 C-0.49717967 7.30019451 -0.0835527 4.51184599 0 0 Z " fill="#352321" transform="translate(184,171)"/>
<path d="M0 0 C1.98 0 3.96 0 6 0 C6 11.22 6 22.44 6 34 C4.02 34 2.04 34 0 34 C0 22.78 0 11.56 0 0 Z " fill="#1A1110" transform="translate(295,166)"/>
<path d="M0 0 C0.79921875 0.12890625 1.5984375 0.2578125 2.421875 0.390625 C3.02515625 0.50921875 3.6284375 0.6278125 4.25 0.75 C5.2894775 3.8684325 5.36494838 6.02475586 5.34765625 9.29296875 C5.34443359 10.36611328 5.34121094 11.43925781 5.33789062 12.54492188 C5.32951172 13.66447266 5.32113281 14.78402344 5.3125 15.9375 C5.30798828 17.06865234 5.30347656 18.19980469 5.29882812 19.36523438 C5.28703498 22.16020927 5.2705765 24.9550782 5.25 27.75 C3.27 28.74 3.27 28.74 1.25 29.75 C0.92 21.5 0.59 13.25 0.25 4.75 C-1.4 4.75 -3.05 4.75 -4.75 4.75 C-4.81058594 5.85859375 -4.87117188 6.9671875 -4.93359375 8.109375 C-5.01802951 9.5729282 -5.10267599 11.03646925 -5.1875 12.5 C-5.22681641 13.22960937 -5.26613281 13.95921875 -5.30664062 14.7109375 C-5.51147098 18.1772973 -5.8352002 21.40333026 -6.75 24.75 C-7.41 24.75 -8.07 24.75 -8.75 24.75 C-8.86632513 21.33362047 -8.93728897 17.91775103 -9 14.5 C-9.03351563 13.53191406 -9.06703125 12.56382812 -9.1015625 11.56640625 C-9.19967664 4.45313075 -9.19967664 4.45313075 -7.03125 1.0625 C-4.29969808 -0.50907781 -3.07353261 -0.54238811 0 0 Z " fill="#392523" transform="translate(314.75,166.25)"/>
<path d="M0 0 C2.97 0 5.94 0 9 0 C9.74869792 2.05078125 10.49739583 4.1015625 11.24609375 6.15234375 C11.85386948 7.98305678 11.85386948 7.98305678 13 9 C14.51469448 9.23192865 16.03754562 9.41215238 17.5625 9.5625 C18.38878906 9.64628906 19.21507812 9.73007813 20.06640625 9.81640625 C20.70449219 9.87699219 21.34257812 9.93757812 22 10 C21.01 11.485 21.01 11.485 20 13 C19.34 13 18.68 13 18 13 C18 13.66 18 14.32 18 15 C14.58442978 17.10188936 11.97827 17.4871351 8 17 C3.75289425 14.43198257 1.72381495 11.62708224 0 7 C-0.1875 3.125 -0.1875 3.125 0 0 Z " fill="#B21B1C" transform="translate(199,138)"/>
<path d="M0 0 C0.80566406 0.00257812 1.61132812 0.00515625 2.44140625 0.0078125 C3.64603516 0.00394531 3.64603516 0.00394531 4.875 0 C7.00390625 0.1328125 7.00390625 0.1328125 9.00390625 1.1328125 C9.33390625 6.7428125 9.66390625 12.3528125 10.00390625 18.1328125 C10.99390625 17.1428125 11.98390625 16.1528125 13.00390625 15.1328125 C11.81714559 19.24083017 11.10942291 21.02729584 8.00390625 24.1328125 C8.00390625 16.8728125 8.00390625 9.6128125 8.00390625 2.1328125 C4.70390625 2.1328125 1.40390625 2.1328125 -1.99609375 2.1328125 C-1.99609375 23.9128125 -1.99609375 45.6928125 -1.99609375 68.1328125 C1.30390625 68.1328125 4.60390625 68.1328125 8.00390625 68.1328125 C7.98070312 66.59109375 7.9575 65.049375 7.93359375 63.4609375 C7.91483415 61.43490068 7.89663415 59.40885861 7.87890625 57.3828125 C7.86214844 56.36703125 7.84539062 55.35125 7.828125 54.3046875 C7.82167969 53.325 7.81523437 52.3453125 7.80859375 51.3359375 C7.79812012 50.43520508 7.78764648 49.53447266 7.77685547 48.60644531 C8.01668949 45.99354394 8.68078561 44.37616584 10.00390625 42.1328125 C10.66390625 42.1328125 11.32390625 42.1328125 12.00390625 42.1328125 C15.08082933 48.5328125 15.08082933 48.5328125 14.69140625 51.5703125 C14.46453125 52.0859375 14.23765625 52.6015625 14.00390625 53.1328125 C13.01390625 50.8228125 12.02390625 48.5128125 11.00390625 46.1328125 C9.35742532 47.77929343 9.79813236 49.74031732 9.72265625 52.0078125 C9.68527344 52.99265625 9.64789063 53.9775 9.609375 54.9921875 C9.57457031 56.02859375 9.53976562 57.065 9.50390625 58.1328125 C9.43533776 60.17462982 9.36264767 62.21631435 9.28515625 64.2578125 C9.2397168 65.62292969 9.2397168 65.62292969 9.19335938 67.015625 C9.00390625 69.1328125 9.00390625 69.1328125 8.00390625 70.1328125 C6.15103123 70.20507752 4.29556747 70.2166247 2.44140625 70.1953125 C0.92353516 70.18177734 0.92353516 70.18177734 -0.625 70.16796875 C-1.40746094 70.15636719 -2.18992187 70.14476562 -2.99609375 70.1328125 C-3.01921941 61.15360473 -3.03700998 52.17440713 -3.04790592 43.19517612 C-3.05313426 39.02618422 -3.06023101 34.85721263 -3.0715332 30.68823242 C-3.08236383 26.66823564 -3.08837096 22.64825845 -3.09097099 18.62824821 C-3.09282493 17.09118275 -3.09644494 15.55411841 -3.10182381 14.01706123 C-3.10903659 11.87145763 -3.11008459 9.72593595 -3.10961914 7.58032227 C-3.11183975 6.35676529 -3.11406036 5.13320831 -3.11634827 3.87257385 C-2.95500184 0.1966146 -2.95500184 0.1966146 0 0 Z " fill="#1B0C0C" transform="translate(314.99609375,87.8671875)"/>
<path d="M0 0 C0.886875 -0.00257812 1.77375 -0.00515625 2.6875 -0.0078125 C5 0.125 5 0.125 7 1.125 C6.67 2.445 6.34 3.765 6 5.125 C5.34 4.795 4.68 4.465 4 4.125 C1.03 3.795 -1.94 3.465 -5 3.125 C-4.67 24.245 -4.34 45.365 -4 67.125 C-1.36 67.455 1.28 67.785 4 68.125 C4 68.455 4 68.785 4 69.125 C2.35425434 69.15188151 0.70838587 69.17134123 -0.9375 69.1875 C-1.85402344 69.19910156 -2.77054687 69.21070313 -3.71484375 69.22265625 C-6 69.125 -6 69.125 -7 68.125 C-7.09417773 66.03880978 -7.11742878 63.94939523 -7.11352539 61.86108398 C-7.11367142 61.20744873 -7.11381744 60.55381348 -7.1139679 59.88037109 C-7.11326883 57.71057872 -7.10547678 55.54087121 -7.09765625 53.37109375 C-7.09579205 51.87036689 -7.09436816 50.36963943 -7.09336853 48.86891174 C-7.08954352 44.91181774 -7.0797134 40.95476022 -7.06866455 36.99768066 C-7.05845006 32.96265151 -7.05387083 28.92761647 -7.04882812 24.89257812 C-7.03809111 16.97003531 -7.0210149 9.04752219 -7 1.125 C-4.51245214 -0.11877393 -2.77344699 -0.00806235 0 0 Z " fill="#3A0B0C" transform="translate(381,87.875)"/>
<path d="M0 0 C6.4596331 1.32505294 10.38917374 5.59409935 15 10 C14.01 11.485 14.01 11.485 13 13 C10.69 12.67 8.38 12.34 6 12 C5.67 11.01 5.34 10.02 5 9 C3.18698242 13.43093198 3.18698242 13.43093198 4 18 C3.67 18.66 3.34 19.32 3 20 C3.99 20.33 4.98 20.66 6 21 C5.67 22.32 5.34 23.64 5 25 C4.01 24.67 3.02 24.34 2 24 C2 23.34 2 22.68 2 22 C1.34 21.67 0.68 21.34 0 21 C-4 15.47058824 -4 15.47058824 -4 13 C-3.34 13 -2.68 13 -2 13 C-2 10.83293273 -2.04765405 8.66568653 -2.125 6.5 C-2 3 -2 3 0 0 Z " fill="#121110" transform="translate(241,88)"/>
<path d="M0 0 C1.25490234 0.10054688 1.25490234 0.10054688 2.53515625 0.203125 C5.36004456 0.84618901 6.84436705 1.76034778 8.9375 3.75 C9.6875 6.9375 9.6875 6.9375 9.9375 9.75 C8.9475 9.09 7.9575 8.43 6.9375 7.75 C6.215625 8.100625 5.49375 8.45125 4.75 8.8125 C0.61716511 10.19011163 -2.26805026 8.62062826 -6.0625 6.75 C-6.3925 6.42 -6.7225 6.09 -7.0625 5.75 C-7.3925 8.39 -7.7225 11.03 -8.0625 13.75 C-11.0625 14.75 -11.0625 14.75 -13.25 13.8125 C-13.848125 13.461875 -14.44625 13.11125 -15.0625 12.75 C-15.0625 9.42688841 -14.41043425 8.02578964 -12.875 5.125 C-12.26591797 3.93003906 -12.26591797 3.93003906 -11.64453125 2.7109375 C-10.0625 0.75 -10.0625 0.75 -7.703125 -0.0390625 C-5.0635104 -0.24991929 -2.63612535 -0.24446294 0 0 Z M-6.0625 2.75 C-6.0625 3.41 -6.0625 4.07 -6.0625 4.75 C-5.4025 4.42 -4.7425 4.09 -4.0625 3.75 C-4.7225 3.42 -5.3825 3.09 -6.0625 2.75 Z " fill="#B21B1B" transform="translate(217.0625,89.25)"/>
<path d="M0 0 C2.98051212 1.0277628 3.93976944 1.90270448 5.625 4.625 C7.19438745 8.47713283 7.30466198 11.23527676 7.1875 15.375 C7.16042969 16.62023437 7.13335937 17.86546875 7.10546875 19.1484375 C7.07066406 20.08945313 7.03585937 21.03046875 7 22 C3.04 22 -0.92 22 -5 22 C-5.22786458 19.16796875 -5.45572917 16.3359375 -5.68359375 13.50390625 C-5.73211468 11.06359221 -5.73211468 11.06359221 -7 10 C-8.98 10 -10.96 10 -13 10 C-13.33 23.86 -13.66 37.72 -14 52 C-14.66 51.67 -15.32 51.34 -16 51 C-16.07410115 45.21593031 -16.12857885 39.43213629 -16.16479492 33.64770508 C-16.17989082 31.67955717 -16.20036948 29.71144294 -16.22631836 27.7434082 C-16.26266649 24.91609388 -16.27971814 22.0892239 -16.29296875 19.26171875 C-16.30845261 18.38037766 -16.32393646 17.49903656 -16.33988953 16.59098816 C-16.34011612 15.77036392 -16.34034271 14.94973969 -16.34057617 14.10424805 C-16.34723801 13.38254929 -16.35389984 12.66085052 -16.36076355 11.9172821 C-15.88867922 9.4083844 -15.01236275 8.53011957 -13 7 C-7.89220104 6.36152513 -7.89220104 6.36152513 -5.32421875 8.19921875 C-2.79554641 11.63791477 -3.84027755 15.90045723 -4 20 C-0.7 20 2.6 20 6 20 C5.67 16.37 5.34 12.74 5 9 C4.34 9 3.68 9 3 9 C2.690625 7.88625 2.38125 6.7725 2.0625 5.625 C1.17673517 2.2054845 1.17673517 2.2054845 0 0 Z " fill="#1C0909" transform="translate(444,92)"/>
<path d="M0 0 C1.41303235 4.23909706 0.96865112 8.2396555 0.83984375 12.67578125 C1.00764381 16.1586557 1.63599735 18.79818325 3 22 C4.32796291 22.35412344 5.66216607 22.68521554 7 23 C8.3440093 24.99284138 9.67541292 26.99419671 11 29 C12.15655978 30.0557587 13.34619264 31.07616672 14.5625 32.0625 C18.12977971 35.03268139 20.67155054 37.38628247 21.27734375 42.20703125 C21.52397509 48.31362327 21.52397509 48.31362327 19.6640625 50.75 C17.09126499 52.68261785 15.11506114 52.38938264 12 52 C10.1875 50.9375 10.1875 50.9375 9 49 C8.3125 45.3125 8.3125 45.3125 8 42 C5.03 42 2.06 42 -1 42 C0.47501473 50.11258099 2.84553625 55.2851408 9 61 C5.78109121 60.76156231 4.79374911 59.79877962 2.4375 57.5 C-0.44208569 53.80913785 -2.17945102 49.60512185 -3 45 C-2.67 43.68 -2.34 42.36 -2 41 C2.95 40.505 2.95 40.505 8 40 C9.32 42.97 10.64 45.94 12 49 C13.99954746 49.04254356 16.00041636 49.04080783 18 49 C19.32771855 47.86692461 19.32771855 47.86692461 19.5 44.9375 C18.66456271 38.35843135 14.1171913 35.00371244 9.44921875 30.5859375 C2.76760602 24.19138665 -2.05908069 18.80655918 -2.375 9.25 C-2.21935019 5.83169081 -1.58681206 3.07444836 0 0 Z " fill="#1C0708" transform="translate(200,96)"/>
<path d="M0 0 C0.66 0 1.32 0 2 0 C2.391875 0.66 2.78375 1.32 3.1875 2 C4.85783979 4.76470034 6.52493051 6.63280576 8.75 8.9375 C12.00826251 12.53729946 12.00826251 12.53729946 11.9375 16.5 C11.628125 17.325 11.31875 18.15 11 19 C9.68 19.33 8.36 19.66 7 20 C8.65 20.33 10.3 20.66 12 21 C14.19131268 18.62607793 14.96601073 17.31949917 15.3125 14.0625 C15.00104612 11.01025201 14.30032837 8.76319779 13 6 C15.2668041 7.97431325 16.79970992 9.50595115 17.9375 12.3125 C18.02557608 16.09977155 16.70182424 18.65938205 15 22 C12.35491041 24.64508959 10.70028236 24.78233633 7 25 C2.84176862 23.259345 0.88414608 21.06578891 -1 17 C-1 15.68 -1 14.36 -1 13 C5.4 12.50769231 5.4 12.50769231 8.4375 15 C9.2109375 15.99 9.2109375 15.99 10 17 C9.81584568 14.05908413 9.81584568 14.05908413 9 11 C7.04836882 9.56362302 7.04836882 9.56362302 5 9 C5 8.34 5 7.68 5 7 C4.34 7 3.68 7 3 7 C0 2.61538462 0 2.61538462 0 0 Z " fill="#251818" transform="translate(217,176)"/>
<path d="M0 0 C0.80566406 0.00257812 1.61132812 0.00515625 2.44140625 0.0078125 C3.64603516 0.00394531 3.64603516 0.00394531 4.875 0 C7.00390625 0.1328125 7.00390625 0.1328125 9.00390625 1.1328125 C9.00390625 23.5728125 9.00390625 46.0128125 9.00390625 69.1328125 C8.67390625 69.1328125 8.34390625 69.1328125 8.00390625 69.1328125 C8.00390625 47.0228125 8.00390625 24.9128125 8.00390625 2.1328125 C4.70390625 2.1328125 1.40390625 2.1328125 -1.99609375 2.1328125 C-1.99609375 16.3228125 -1.99609375 30.5128125 -1.99609375 45.1328125 C-5.3466008 41.78230545 -5.74048742 40.21541034 -6.74609375 35.6953125 C-7.14054687 33.99568359 -7.14054687 33.99568359 -7.54296875 32.26171875 C-7.99609375 29.1328125 -7.99609375 29.1328125 -6.99609375 25.1328125 C-6.00609375 28.1028125 -5.01609375 31.0728125 -3.99609375 34.1328125 C-3.95850952 32.64116577 -3.95850952 32.64116577 -3.92016602 31.11938477 C-3.82624493 27.44232503 -3.72598756 23.765461 -3.6237793 20.08862305 C-3.58037229 18.4949195 -3.53870156 16.9011677 -3.4987793 15.30737305 C-3.44121568 13.02117342 -3.37748226 10.73521801 -3.3125 8.44921875 C-3.28743126 7.3742086 -3.28743126 7.3742086 -3.26185608 6.27748108 C-3.0785097 0.20483235 -3.0785097 0.20483235 0 0 Z " fill="#190606" transform="translate(401.99609375,87.8671875)"/>
<path d="M0 0 C5.8732024 0.11516083 9.41254518 1.42955029 14 5.125 C16.14098867 7.80123583 17.00006934 9.97189978 17.75 13.3125 C17.375 16.1875 17.375 16.1875 16.75 18.3125 C13.07589215 19.48821451 9.58070817 19.38616746 5.75 19.3125 C4.76 16.3425 3.77 13.3725 2.75 10.3125 C3.8946875 10.0959375 3.8946875 10.0959375 5.0625 9.875 C7.83172908 9.3492406 7.83172908 9.3492406 10.75 8.3125 C10.75 7.3225 10.75 6.3325 10.75 5.3125 C4.67122066 2.07048435 -0.43401613 1.97971236 -7.25 2.3125 C-4.67767294 -0.25982706 -3.57102308 0.01463534 0 0 Z " fill="#A51A1C" transform="translate(214.25,87.6875)"/>
<path d="M0 0 C1.39456452 0.00667256 2.78911118 0.01863093 4.18359375 0.03515625 C4.89451172 0.03966797 5.60542969 0.04417969 6.33789062 0.04882812 C8.09899388 0.06064761 9.86005411 0.07858362 11.62109375 0.09765625 C11.62109375 2.40765625 11.62109375 4.71765625 11.62109375 7.09765625 C8.65109375 7.09765625 5.68109375 7.09765625 2.62109375 7.09765625 C2.72723211 9.54990319 2.72723211 9.54990319 3.62109375 12.09765625 C4.44609375 12.40703125 5.27109375 12.71640625 6.12109375 13.03515625 C6.94609375 13.38578125 7.77109375 13.73640625 8.62109375 14.09765625 C9.49609375 17.16015625 9.49609375 17.16015625 9.62109375 20.09765625 C9.29109375 20.42765625 8.96109375 20.75765625 8.62109375 21.09765625 C6.64109375 21.09765625 4.66109375 21.09765625 2.62109375 21.09765625 C2.62109375 25.71765625 2.62109375 30.33765625 2.62109375 35.09765625 C0.64109375 35.09765625 -1.33890625 35.09765625 -3.37890625 35.09765625 C-3.37890625 34.76765625 -3.37890625 34.43765625 -3.37890625 34.09765625 C-1.72890625 34.09765625 -0.07890625 34.09765625 1.62109375 34.09765625 C1.62109375 29.14765625 1.62109375 24.19765625 1.62109375 19.09765625 C3.60109375 19.09765625 5.58109375 19.09765625 7.62109375 19.09765625 C7.62109375 17.77765625 7.62109375 16.45765625 7.62109375 15.09765625 C5.64109375 15.42765625 3.66109375 15.75765625 1.62109375 16.09765625 C1.25707006 14.6626207 0.90522784 13.22449119 0.55859375 11.78515625 C0.36136719 10.98464844 0.16414063 10.18414062 -0.0390625 9.359375 C-0.37890625 7.09765625 -0.37890625 7.09765625 0.62109375 4.09765625 C3.68359375 2.91015625 3.68359375 2.91015625 6.62109375 2.09765625 C3.65109375 1.76765625 0.68109375 1.43765625 -2.37890625 1.09765625 C-2.37890625 2.41765625 -2.37890625 3.73765625 -2.37890625 5.09765625 C-1.71890625 5.42765625 -1.05890625 5.75765625 -0.37890625 6.09765625 C-0.70890625 6.42765625 -1.03890625 6.75765625 -1.37890625 7.09765625 C-1.74651356 9.42583589 -2.08132206 11.75949475 -2.37890625 14.09765625 C-2.70890625 14.09765625 -3.03890625 14.09765625 -3.37890625 14.09765625 C-3.572845 11.95239526 -3.75889301 9.80641948 -3.94140625 7.66015625 C-4.09802734 5.86771484 -4.09802734 5.86771484 -4.2578125 4.0390625 C-4.29777344 3.06839844 -4.33773437 2.09773437 -4.37890625 1.09765625 C-3.37890625 0.09765625 -3.37890625 0.09765625 0 0 Z " fill="#2A1E1C" transform="translate(83.37890625,164.90234375)"/>
<path d="M0 0 C1.66949355 0.03767954 3.33759288 0.15428796 5 0.3125 C5.9075 0.39113281 6.815 0.46976562 7.75 0.55078125 C8.4925 0.69902344 9.235 0.84726563 10 1 C11.68155254 4.36310508 9.96716954 7.47267579 9 11 C4.71 11 0.42 11 -4 11 C-4 9.35 -4 7.7 -4 6 C-4.66 6 -5.32 6 -6 6 C-6.33 4.35 -6.66 2.7 -7 1 C-5.5459375 1.0309375 -5.5459375 1.0309375 -4.0625 1.0625 C-1.12534105 1.35618499 -1.12534105 1.35618499 0 0 Z " fill="#0A090A" transform="translate(268,65)"/>
<path d="M0 0 C5.28 0 10.56 0 16 0 C16.33 2.31 16.66 4.62 17 7 C15.35 7 13.7 7 12 7 C11.67 10.63 11.34 14.26 11 18 C10.67 18 10.34 18 10 18 C10 15.03 10 12.06 10 9 C8.02 9.33 6.04 9.66 4 10 C4 9.01 4 8.02 4 7 C2.35 6.67 0.7 6.34 -1 6 C-0.67 4.02 -0.34 2.04 0 0 Z " fill="#2E1E1B" transform="translate(106,165)"/>
<path d="M0 0 C4.49996683 -0.44117322 6.34611117 -0.52867608 9.9375 2.375 C12 5 12 5 12 7 C12.99 7 13.98 7 15 7 C15.20140476 10.62528568 14.85776765 12.86501708 13 16 C7.15588692 14.01300155 3.19109605 11.42143199 0 6 C-0.375 2.5625 -0.375 2.5625 0 0 Z " fill="#B01B1C" transform="translate(207,115)"/>
<path d="M0 0 C3.69230769 0.69230769 3.69230769 0.69230769 5 2 C5.30812861 5.76256903 5.27842143 9.53886644 5.3125 13.3125 C5.34150391 14.37146484 5.37050781 15.43042969 5.40039062 16.52148438 C5.40876953 17.54177734 5.41714844 18.56207031 5.42578125 19.61328125 C5.44036377 20.54954346 5.45494629 21.48580566 5.4699707 22.45043945 C4.86090329 25.75459063 3.61604957 26.96099797 1 29 C-1.25 28.75 -1.25 28.75 -3 28 C-2.34 27.67 -1.68 27.34 -1 27 C-1.00523682 26.21761963 -1.01047363 25.43523926 -1.01586914 24.62915039 C-1.03657106 21.10694167 -1.04963838 17.5847457 -1.0625 14.0625 C-1.07087891 12.83080078 -1.07925781 11.59910156 -1.08789062 10.33007812 C-1.09111328 9.16025391 -1.09433594 7.99042969 -1.09765625 6.78515625 C-1.10289307 5.70113525 -1.10812988 4.61711426 -1.11352539 3.50024414 C-1 1 -1 1 0 0 Z " fill="#372421" transform="translate(286,168)"/>
<path d="M0 0 C1.62490954 -0.02698189 3.24994633 -0.04638757 4.875 -0.0625 C5.77992188 -0.07410156 6.68484375 -0.08570312 7.6171875 -0.09765625 C10 0 10 0 12 1 C11.59566007 3.3451716 11.32168423 4.68546431 9.59375 6.375 C7.81292395 8.19074421 6.90115102 9.89757889 5.8125 12.1875 C5.46832031 12.90292969 5.12414062 13.61835937 4.76953125 14.35546875 C4.51558594 14.89816406 4.26164062 15.44085938 4 16 C3.67 15.01 3.34 14.02 3 13 C0.98491642 12.26676204 0.98491642 12.26676204 -1 12 C-2.36884358 7.48281619 -1.47075246 4.41225737 0 0 Z " fill="#801618" transform="translate(335,88)"/>
<path d="M0 0 C0.61875 0.33 1.2375 0.66 1.875 1 C1.875 1.66 1.875 2.32 1.875 3 C0.75351562 2.96519531 0.75351562 2.96519531 -0.390625 2.9296875 C-1.37546875 2.91164063 -2.3603125 2.89359375 -3.375 2.875 C-4.34953125 2.85179688 -5.3240625 2.82859375 -6.328125 2.8046875 C-9.45059635 2.84294911 -9.45059635 2.84294911 -13.125 5 C-10.485 6.32 -7.845 7.64 -5.125 9 C-4.465 7.68 -3.805 6.36 -3.125 5 C-2.5 6.8125 -2.5 6.8125 -2.125 9 C-3.115 10.485 -3.115 10.485 -4.125 12 C-4.455 11.67 -4.785 11.34 -5.125 11 C-7.12452758 10.95653201 -9.12539988 10.960008 -11.125 11 C-14.125 11 -14.125 11 -16.125 10 C-15.795 8.35 -15.465 6.7 -15.125 5 C-18.67018884 6.39759905 -18.67018884 6.39759905 -22.125 8 C-18.41121165 -1.45327944 -8.74015979 -2.79685113 0 0 Z " fill="#AB1B1C" transform="translate(442.125,89)"/>
<path d="M0 0 C2.57642673 2.57642673 2.53827721 4.23985561 3.0625 7.8125 C3.62652964 11.56492861 4.22404343 15.28502208 5 19 C4.34 19 3.68 19 3 19 C2.36605303 23.04141194 1.87595548 26.9065307 2 31 C-0.23127725 27.65308412 -1.38532762 24.28388372 -2.625 20.5 C-2.96917969 19.48486328 -2.96917969 19.48486328 -3.3203125 18.44921875 C-4.29296917 15.51387986 -5 13.11291919 -5 10 C-3.68 9.67 -2.36 9.34 -1 9 C-0.67 6.03 -0.34 3.06 0 0 Z " fill="#A91B1C" transform="translate(392,107)"/>
<path d="M0 0 C2.4228932 1.8990244 3.71291245 3.24915564 4.8125 6.125 C5 8 5 8 4 10 C2.02 10 0.04 10 -2 10 C-2.33 9.34 -2.66 8.68 -3 8 C-3.99 7.67 -4.98 7.34 -6 7 C-3.94035159 10.96086233 -2.15315189 14.02158747 1.1875 17 C4.39047126 19.98513694 4.82448516 22.61212898 5 27 C3 24 3 24 1.8125 21.75 C-0.26647948 18.59568631 -2.69778532 16.28451257 -5.4765625 13.74609375 C-7.19265747 11.7791849 -7.70387819 10.578302 -8 8 C-7.67 7.01 -7.34 6.02 -7 5 C-5.35 5 -3.7 5 -2 5 C-2 5.66 -2 6.32 -2 7 C-0.35 7.33 1.3 7.66 3 8 C2.1386077 5.38987933 2.1386077 5.38987933 0 3 C-3.05572304 2.23065129 -5.82371135 2.13809951 -9 2 C-9.66 4.97 -10.32 7.94 -11 11 C-11.66 11 -12.32 11 -13 11 C-13.35288435 7.2064932 -13.28393415 5.44058747 -11.1875 2.1875 C-7.53637316 -1.46362684 -4.79503135 -1.27215117 0 0 Z " fill="#0E0A09" transform="translate(177,165)"/>
<path d="M0 0 C2 1 2 1 2.8515625 3.06640625 C3.56770833 5.37760417 4.28385417 7.68880208 5 10 C5.33 6.7 5.66 3.4 6 0 C6.33 0 6.66 0 7 0 C7 7.26 7 14.52 7 22 C6.01 22 5.02 22 4 22 C4.33 23.65 4.66 25.3 5 27 C4.34 27.33 3.68 27.66 3 28 C2.79503906 27.43410156 2.59007812 26.86820313 2.37890625 26.28515625 C2.10949219 25.55167969 1.84007812 24.81820312 1.5625 24.0625 C1.29566406 23.33160156 1.02882812 22.60070312 0.75390625 21.84765625 C0.14613052 20.01694322 0.14613052 20.01694322 -1 19 C-1.04063832 17.33382885 -1.042721 15.66611905 -1 14 C-0.01 14 0.98 14 2 14 C1.855625 12.989375 1.71125 11.97875 1.5625 10.9375 C1.04166667 7.29166667 0.52083333 3.64583333 0 0 Z " fill="#32211E" transform="translate(131,165)"/>
<path d="M0 0 C5.61 0 11.22 0 17 0 C17.06922608 4.00229288 17.12884797 8.00304204 17.16479492 12.00561523 C17.17979409 13.36441117 17.20020038 14.72315941 17.22631836 16.08178711 C17.48676127 29.98739592 17.48676127 29.98739592 14 36 C13.34 36 12.68 36 12 36 C12 36.66 12 37.32 12 38 C11.34 37.67 10.68 37.34 10 37 C10.639375 36.0925 11.27875 35.185 11.9375 34.25 C14.83596914 29.6827153 15.13233321 26.28628943 15.31640625 20.921875 C15.35830078 19.76171875 15.40019531 18.6015625 15.44335938 17.40625 C15.48267578 16.1996875 15.52199219 14.993125 15.5625 13.75 C15.60568359 12.52796875 15.64886719 11.3059375 15.69335938 10.046875 C15.79937283 7.03138119 15.9001844 4.01570532 16 1 C11.05 1 6.1 1 1 1 C1 3.97 1 6.94 1 10 C2.65 10 4.3 10 6 10 C6 14.95 6 19.9 6 25 C5.67 25 5.34 25 5 25 C5 21.04 5 17.08 5 13 C3.35 13 1.7 13 0 13 C-1.18306728 10.63386544 -1.13354608 9.13219264 -1.125 6.5 C-1.12757813 5.7059375 -1.13015625 4.911875 -1.1328125 4.09375 C-1 2 -1 2 0 0 Z " fill="#240C0D" transform="translate(434,117)"/>
<path d="M0 0 C0.84339766 2.91851903 1.10613832 5.45688037 1.05004883 8.48974609 C1.03706253 9.37101166 1.02407623 10.25227722 1.01069641 11.1602478 C0.99298691 12.1051004 0.9752774 13.049953 0.95703125 14.0234375 C0.93464284 16.0338443 0.91318746 18.04426167 0.89257812 20.0546875 C0.85549189 23.21708764 0.81242602 26.37894819 0.75317383 29.54101562 C0.69858955 32.59773535 0.6695636 35.65385151 0.64453125 38.7109375 C0.62074905 39.65174164 0.59696686 40.59254578 0.57246399 41.56185913 C0.54905712 47.4475016 1.32915644 50.39343345 5 55 C5 55.66 5 56.32 5 57 C11.93852785 59.26564175 17.77854667 59.40906406 25 58 C22.15428122 61.11673962 20.07162831 61.8949384 15.8125 62.3125 C10.47884919 61.87531551 6.21455084 60.45091929 2.54623413 56.3910675 C-1.33634513 50.63230615 -1.68185243 45.87286211 -1.5234375 39.04296875 C-1.51873444 38.01818924 -1.51403137 36.99340973 -1.50918579 35.93757629 C-1.48795814 32.68684766 -1.43138427 29.43778806 -1.375 26.1875 C-1.35848035 23.98504142 -1.34413552 21.78256539 -1.33203125 19.58007812 C-1.29815962 15.56253016 -1.26339708 11.54516133 -1.19287109 7.52807617 C-1.18001068 6.72391769 -1.16715027 5.91975922 -1.15390015 5.0912323 C-1 3 -1 3 0 0 Z " fill="#24090A" transform="translate(419,97)"/>
<path d="M0 0 C0.66 0 1.32 0 2 0 C2.33 1.32 2.66 2.64 3 4 C3.66 4 4.32 4 5 4 C6.7265625 5.96875 6.7265625 5.96875 8.625 8.5 C9.25664062 9.3353125 9.88828125 10.170625 10.5390625 11.03125 C11.26222656 12.00578125 11.26222656 12.00578125 12 13 C11.34 14.32 10.68 15.64 10 17 C8.02 16.67 6.04 16.34 4 16 C4 15.01 4 14.02 4 13 C2.68 13 1.36 13 0 13 C0.66 14.98 1.32 16.96 2 19 C2.66 19 3.32 19 4 19 C4 19.66 4 20.32 4 21 C6.64 21 9.28 21 12 21 C12.33 20.01 12.66 19.02 13 18 C13.66 18 14.32 18 15 18 C15.33 17.01 15.66 16.02 16 15 C15.64212875 17.64824722 15.31760089 19.55535876 13.75 21.75 C11.39692226 23.43076982 9.90169851 23.86503728 7 24 C3.85869975 22.99478392 1.73708822 22.15219928 -0.08203125 19.30859375 C-0.9375 17.4375 -0.9375 17.4375 -2 14 C-1.67 13.34 -1.34 12.68 -1 12 C1.875 11.8125 1.875 11.8125 5 12 C5.99 13.485 5.99 13.485 7 15 C7.66 15 8.32 15 9 15 C7.65993381 10.23532021 4.76491679 7.29602343 1.4609375 3.76953125 C0 2 0 2 0 0 Z " fill="#0E0A09" transform="translate(165,177)"/>
<path d="M0 0 C0.99 0 1.98 0 3 0 C3 10.89 3 21.78 3 33 C2.01 33 1.02 33 0 33 C0 22.11 0 11.22 0 0 Z " fill="#3C2623" transform="translate(297,166)"/>
<path d="M0 0 C3.15140423 0.34069235 4.60781561 0.58076841 6.8125 2.9375 C8 5 8 5 8 7 C8.61875 7.2475 9.2375 7.495 9.875 7.75 C12.43898664 9.25822744 13.11257047 10.17636058 14 13 C13.66052758 16.39472417 12.64956143 19.03078942 11 22 C10.34 21.67 9.68 21.34 9 21 C9.13921875 19.44539063 9.13921875 19.44539063 9.28125 17.859375 C8.93714184 13.1374463 7.65356362 11.69556026 4.5 8.25 C0 3.27777778 0 3.27777778 0 0 Z " fill="#3A2423" transform="translate(186,175)"/>
<path d="M0 0 C-0.33 0.66 -0.66 1.32 -1 2 C-2.98 2 -4.96 2 -7 2 C-6.67 3.65 -6.34 5.3 -6 7 C-3.36 7.66 -0.72 8.32 2 9 C2 11.31 2 13.62 2 16 C-2.95 16 -7.9 16 -13 16 C-13 15.67 -13 15.34 -13 15 C-9.7 14.34 -6.4 13.68 -3 13 C-5.475 12.01 -5.475 12.01 -8 11 C-8 7.37 -8 3.74 -8 0 C-2.25 -1.125 -2.25 -1.125 0 0 Z " fill="#1E1614" transform="translate(160,184)"/>
<path d="M0 0 C2.85954962 0.98605159 3.92348889 1.88383715 5.60546875 4.4375 C7.45976414 9.17452352 7.51420374 13.33267286 7.5 18.375 C7.52835938 19.2825 7.55671875 20.19 7.5859375 21.125 C7.6046082 27.6037323 6.26261661 32.04287858 2 37 C-3.00210513 41.20243651 -7.62260593 41.5206036 -14 41 C-14.33 41.66 -14.66 42.32 -15 43 C-15 41.68 -15 40.36 -15 39 C-14.27554688 38.97421875 -13.55109375 38.9484375 -12.8046875 38.921875 C-6.84169129 38.57204589 -2.56338087 38.22112731 2 34 C5.32601569 28.78951053 5.52949445 24.12018212 5.6875 18.125 C5.72166016 17.24585937 5.75582031 16.36671875 5.79101562 15.4609375 C5.8729314 13.30772295 5.93815579 11.15388449 6 9 C5.34 9 4.68 9 4 9 C4 8.34 4 7.68 4 7 C3.01 6.67 2.02 6.34 1 6 C1.66 5.34 2.32 4.68 3 4 C2.01 2.68 1.02 1.36 0 0 Z " fill="#0F0404" transform="translate(185,92)"/>
<path d="M0 0 C0.99 0.66 1.98 1.32 3 2 C2.67 2.66 2.34 3.32 2 4 C1.85950368 5.64250334 1.77429918 7.28993491 1.71875 8.9375 C1.66267578 10.40316406 1.66267578 10.40316406 1.60546875 11.8984375 C1.57066406 12.92195312 1.53585937 13.94546875 1.5 15 C1.43127649 17.02098028 1.35855796 19.04182989 1.28125 21.0625 C1.25095703 21.96097656 1.22066406 22.85945313 1.18945312 23.78515625 C1 26 1 26 0 28 C-0.66 28 -1.32 28 -2 28 C-2 19.09 -2 10.18 -2 1 C-1.34 0.67 -0.68 0.34 0 0 Z " fill="#3C2622" transform="translate(279,168)"/>
<path d="M0 0 C5.28 0 10.56 0 16 0 C16 2.31 16 4.62 16 7 C13.03 7 10.06 7 7 7 C7 8.98 7 10.96 7 13 C9.97 13.495 9.97 13.495 13 14 C12.67 14.66 12.34 15.32 12 16 C9.03 15.505 9.03 15.505 6 15 C6 11.7 6 8.4 6 5 C7.98 4.34 9.96 3.68 12 3 C8.04 2.67 4.08 2.34 0 2 C0 1.34 0 0.68 0 0 Z " fill="#191211" transform="translate(146,165)"/>
<path d="M0 0 C9 0 9 0 12 2 C12.30549027 4.55773225 12.41852409 6.82158698 12.375 9.375 C12.38660156 10.04789063 12.39820312 10.72078125 12.41015625 11.4140625 C12.39296847 14.32452637 12.09348374 16.75907036 11.0390625 19.4765625 C9 21 9 21 0 21 C0 14.07 0 7.14 0 0 Z M1 2 C1 7.94 1 13.88 1 20 C3.31 20 5.62 20 8 20 C10.37498298 18.06386889 10.37498298 18.06386889 10.23046875 14.55859375 C10.22647911 13.18482696 10.21173177 11.81105886 10.1875 10.4375 C10.18685547 9.73947266 10.18621094 9.04144531 10.18554688 8.32226562 C10.4548138 4.87149957 10.4548138 4.87149957 9 2 C6.36 2 3.72 2 1 2 Z " fill="#140505" transform="translate(92,100)"/>
<path d="M0 0 C3 1 3 1 4.6875 3.1875 C6.23610013 6.50592886 6.52820858 8.37799831 6 12 C4 14.875 4 14.875 2 17 C-0.4375 16.625 -0.4375 16.625 -3 16 C-3.33 15.34 -3.66 14.68 -4 14 C-2.35 14 -0.7 14 1 14 C1.64165788 8.73840541 0.20577001 6.31407151 -2.90625 2.3203125 C-3.2671875 1.88460937 -3.628125 1.44890625 -4 1 C-2.68 1.33 -1.36 1.66 0 2 C0 1.34 0 0.68 0 0 Z " fill="#372421" transform="translate(227,181)"/>
<path d="M0 0 C0.66 0 1.32 0 2 0 C3.19266912 7.20051729 2.94598846 14.16309904 2.625 21.4375 C2.58117187 22.63310547 2.53734375 23.82871094 2.4921875 25.06054688 C2.13166401 33.86833599 2.13166401 33.86833599 1 35 C-0.99958364 35.04080783 -3.00045254 35.04254356 -5 35 C-3.68 34.34 -2.36 33.68 -1 33 C-0.67 22.11 -0.34 11.22 0 0 Z " fill="#0A0605" transform="translate(142,165)"/>
<path d="M0 0 C5.8732024 0.11516083 9.41254518 1.42955029 14 5.125 C16.14098867 7.80123583 17.00006934 9.97189978 17.75 13.3125 C17.375 16.1875 17.375 16.1875 16.75 18.3125 C13.07589215 19.48821451 9.58070817 19.38616746 5.75 19.3125 C5.09 17.0025 4.43 14.6925 3.75 12.3125 C4.41 12.3125 5.07 12.3125 5.75 12.3125 C6.08 13.9625 6.41 15.6125 6.75 17.3125 C10.71 16.8175 10.71 16.8175 14.75 16.3125 C14.58356384 11.40263322 14.49639558 9.21200236 11.3125 5.375 C6.00016114 1.55114256 -0.99422648 2.27904667 -7.25 2.3125 C-4.67767294 -0.25982706 -3.57102308 0.01463534 0 0 Z " fill="#1F0809" transform="translate(214.25,87.6875)"/>
<path d="M0 0 C2.56142407 2.63065175 3.83859061 4.51577183 5 8 C4.67 8.66 4.34 9.32 4 10 C2.02 10 0.04 10 -2 10 C-2.33 9.01 -2.66 8.02 -3 7 C-3.99 7 -4.98 7 -6 7 C-4.6302836 10.99500618 -2.74277578 13.80009492 0 17 C-3.36573933 15.55754029 -5.75010389 13.916532 -8 11 C-7.75 8.25 -7.75 8.25 -7 6 C-5.3125 5.3125 -5.3125 5.3125 -3 5 C-0.25 6.4375 -0.25 6.4375 2 8 C0.515 5.03 0.515 5.03 -1 2 C-3.97 2 -6.94 2 -10 2 C-7.89956752 -2.20086497 -3.86083496 -1.1030957 0 0 Z " fill="#0D0808" transform="translate(230,165)"/>
<path d="M0 0 C5.28 0 10.56 0 16 0 C16.33 2.31 16.66 4.62 17 7 C15.35 7 13.7 7 12 7 C11.67 10.63 11.34 14.26 11 18 C10.67 18 10.34 18 10 18 C10 13.05 10 8.1 10 3 C4.35619781 1.89040068 4.35619781 1.89040068 0 2 C0 1.34 0 0.68 0 0 Z " fill="#1F1616" transform="translate(106,165)"/>
<path d="M0 0 C3.3 0 6.6 0 10 0 C10 0.33 10 0.66 10 1 C7.03 1 4.06 1 1 1 C1.10613836 3.45224694 1.10613836 3.45224694 2 6 C2.825 6.309375 3.65 6.61875 4.5 6.9375 C5.7375 7.4634375 5.7375 7.4634375 7 8 C7.875 11.0625 7.875 11.0625 8 14 C7.67 14.33 7.34 14.66 7 15 C5.02 15 3.04 15 1 15 C1 19.62 1 24.24 1 29 C-0.98 29 -2.96 29 -5 29 C-5 28.67 -5 28.34 -5 28 C-3.35 28 -1.7 28 0 28 C0 23.05 0 18.1 0 13 C1.98 13 3.96 13 6 13 C6 11.68 6 10.36 6 9 C4.02 9.33 2.04 9.66 0 10 C0 6.7 0 3.4 0 0 Z " fill="#0C0908" transform="translate(85,171)"/>
<path d="M0 0 C0.33 0 0.66 0 1 0 C1.60255925 6.53442034 1.14590536 10.89135242 -2.515625 16.40625 C-4.22355459 18.24002703 -5.66952861 19.09671652 -8 20 C-8.99 20 -9.98 20 -11 20 C-10.42194191 16.0981079 -8.644973 13.86538742 -6 11 C-5.113125 10.566875 -4.22625 10.13375 -3.3125 9.6875 C-0.85267161 8.26025869 -0.85267161 8.26025869 -0.4609375 6.0390625 C-0.21485409 4.03524043 -0.09916912 2.01643879 0 0 Z " fill="#A21A1E" transform="translate(230,136)"/>
<path d="M0 0 C1.62418745 -0.08090971 3.24951745 -0.13914995 4.875 -0.1875 C5.77992188 -0.22230469 6.68484375 -0.25710937 7.6171875 -0.29296875 C8.79667969 -0.14794922 8.79667969 -0.14794922 10 0 C12.58837761 3.88256641 12.25793118 7.13223217 12.1875 11.625 C12.18685547 12.41390625 12.18621094 13.2028125 12.18554688 14.015625 C12.1403612 19.8596388 12.1403612 19.8596388 11 21 C9.14712498 21.07226502 7.29166122 21.0838122 5.4375 21.0625 C4.42558594 21.05347656 3.41367188 21.04445313 2.37109375 21.03515625 C1.58863281 21.02355469 0.80617187 21.01195313 0 21 C0 19.02 0 17.04 0 15 C0.33 15 0.66 15 1 15 C1 16.65 1 18.3 1 20 C3.64 20 6.28 20 9 20 C10.07957377 16.76127868 10.13326784 14.33971795 10.125 10.9375 C10.12757813 9.87402344 10.13015625 8.81054688 10.1328125 7.71484375 C10.18438455 5.03295616 10.18438455 5.03295616 9 3 C7.10466658 2.53476937 7.10466658 2.53476937 4.9375 2.375 C3.638125 2.25125 2.33875 2.1275 1 2 C0.67 2.99 0.34 3.98 0 5 C0 3.35 0 1.7 0 0 Z " fill="#340E0E" transform="translate(170,100)"/>
<path d="M0 0 C0.66 0 1.32 0 2 0 C2 8.58 2 17.16 2 26 C4.475 26.99 4.475 26.99 7 28 C6.34 28.33 5.68 28.66 5 29 C5 29.66 5 30.32 5 31 C2.69 30.67 0.38 30.34 -2 30 C-2 27 -2 27 -1 26 C-0.84193469 24.07521187 -0.748865 22.1450079 -0.68359375 20.21484375 C-0.64169922 19.04501953 -0.59980469 17.87519531 -0.55664062 16.66992188 C-0.49766602 14.82237305 -0.49766602 14.82237305 -0.4375 12.9375 C-0.39431641 11.70193359 -0.35113281 10.46636719 -0.30664062 9.19335938 C-0.20015802 6.12902665 -0.09814576 3.06460927 0 0 Z " fill="#2F1E1D" transform="translate(260,167)"/>
<path d="M0 0 C0.66 0.66 1.32 1.32 2 2 C1.34 2 0.68 2 0 2 C0 1.34 0 0.68 0 0 Z M-1 2 C-0.34 2.66 0.32 3.32 1 4 C3.57061311 4.64767793 3.57061311 4.64767793 6 5 C6.33 5.99 6.66 6.98 7 8 C4.69 8.33 2.38 8.66 0 9 C0.66 12.96 1.32 16.92 2 21 C1.34 21 0.68 21 0 21 C-2.34798025 17.31561992 -2.23646696 14.10823752 -2.1875 9.8125 C-2.18105469 8.56082031 -2.17460937 7.30914062 -2.16796875 6.01953125 C-2 3 -2 3 -1 2 Z " fill="#9B1A1B" transform="translate(211,92)"/>
<path d="M0 0 C2.4228932 1.8990244 3.71291245 3.24915564 4.8125 6.125 C5 8 5 8 4 10 C2.02 10 0.04 10 -2 10 C-2.33 9.01 -2.66 8.02 -3 7 C-3.99 7 -4.98 7 -6 7 C-6 6.34 -6 5.68 -6 5 C-2.85262818 5.69941596 0.02588876 6.76078698 3 8 C2.06454002 5.40743101 2.06454002 5.40743101 0 3 C-2.86049841 1.99286619 -4.8749109 2 -8 2 C-10.02977977 3.27219734 -10.02977977 3.27219734 -11 5 C-11.66 4.67 -12.32 4.34 -13 4 C-8.74670244 -0.54662843 -6.13624133 -1.62798239 0 0 Z " fill="#0E0909" transform="translate(197,165)"/>
<path d="M0 0 C0.61875 0.33 1.2375 0.66 1.875 1 C1.875 1.66 1.875 2.32 1.875 3 C0.22951172 2.94779297 0.22951172 2.94779297 -1.44921875 2.89453125 C-2.90363045 2.86638135 -4.3580588 2.83908248 -5.8125 2.8125 C-6.53373047 2.78736328 -7.25496094 2.76222656 -7.99804688 2.73632812 C-12.63906585 2.67275252 -15.40112349 3.2288991 -19.125 6 C-20.115 6.66 -21.105 7.32 -22.125 8 C-18.41121165 -1.45327944 -8.74015979 -2.79685113 0 0 Z " fill="#491011" transform="translate(442.125,89)"/>
<path d="M0 0 C0.33 0 0.66 0 1 0 C1.11605098 4.58312084 1.18720362 9.16586449 1.25 13.75 C1.30027344 15.70292969 1.30027344 15.70292969 1.3515625 17.6953125 C1.36445313 18.94570312 1.37734375 20.19609375 1.390625 21.484375 C1.41157227 22.63647461 1.43251953 23.78857422 1.45410156 24.97558594 C0.90524177 28.6311102 -0.11188876 29.77280449 -3 32 C-5.85767202 32.64722706 -8.01567914 32.28422103 -11 32 C-11.99 31.34 -12.98 30.68 -14 30 C-13.67 29.34 -13.34 28.68 -13 28 C-12.34 28.33 -11.68 28.66 -11 29 C-5.67032792 29.34092041 -5.67032792 29.34092041 -1 27 C-0.48895078 24.19189856 -0.48895078 24.19189856 -0.48828125 20.8984375 C-0.45283203 19.68671875 -0.41738281 18.475 -0.38085938 17.2265625 C-0.35830078 15.95554688 -0.33574219 14.68453125 -0.3125 13.375 C-0.27833984 12.09625 -0.24417969 10.8175 -0.20898438 9.5 C-0.12627521 6.33342068 -0.05719915 3.16712636 0 0 Z " fill="#140E0D" transform="translate(271,168)"/>
<path d="M0 0 C0.33 0 0.66 0 1 0 C1.144375 0.928125 1.28875 1.85625 1.4375 2.8125 C2.82946027 7.9901704 6.6475329 11.49607771 10.19921875 15.3515625 C12 18 12 18 11.76953125 20.8359375 C11.51558594 21.55007812 11.26164063 22.26421875 11 23 C9.68 23.33 8.36 23.66 7 24 C6.34 22.68 5.68 21.36 5 20 C5.66 20 6.32 20 7 20 C7 20.66 7 21.32 7 22 C7.99 22 8.98 22 10 22 C8.66932878 17.26872454 5.80856057 14.30327896 2.55859375 10.76953125 C-0.49717967 7.30019451 -0.0835527 4.51184599 0 0 Z " fill="#0D0807" transform="translate(184,171)"/>
<path d="M0 0 C3.77720794 4.49667612 6 9.0971218 6 15 C9.63 15 13.26 15 17 15 C17.33 13.68 17.66 12.36 18 11 C18.33 12.98 18.66 14.96 19 17 C14.71 17 10.42 17 6 17 C0.77678571 4.8125 0.77678571 4.8125 0 0 Z " fill="#1B0808" transform="translate(330,141)"/>
<path d="M0 0 C3.80625387 3.22067635 7.54081536 6.40244797 11 10 C10.34 10.66 9.68 11.32 9 12 C5.375 11.625 5.375 11.625 2 11 C1.34 7.37 0.68 3.74 0 0 Z " fill="#100F0F" transform="translate(245,89)"/>
<path d="M0 0 C0.99 1.485 0.99 1.485 2 3 C3.13198082 4.30382369 4.27912952 5.59456467 5.4375 6.875 C12.05318992 14.45749221 12.05318992 14.45749221 11.875 19.625 C10.99613366 23.01491302 10.4798191 23.78826945 8 26 C8.10699219 25.33613281 8.21398437 24.67226562 8.32421875 23.98828125 C9.13104167 18.48810226 9.13104167 18.48810226 7.875 13.1875 C5.96333391 10.87344286 5.96333391 10.87344286 3.375 8.5625 C0.65910199 5.63218899 0.27349906 3.92015317 0 0 Z " fill="#0E0909" transform="translate(190,172)"/>
<path d="M0 0 C2 1 2 1 2.8515625 3.06640625 C3.56770833 5.37760417 4.28385417 7.68880208 5 10 C5.33 6.7 5.66 3.4 6 0 C6.33 0 6.66 0 7 0 C7 7.26 7 14.52 7 22 C4.89734696 19.89734696 4.51868443 18.96227255 3.7109375 16.19140625 C3.49179688 15.44439453 3.27265625 14.69738281 3.046875 13.92773438 C2.71429688 12.75694336 2.71429688 12.75694336 2.375 11.5625 C2.14554688 10.78583984 1.91609375 10.00917969 1.6796875 9.20898438 C0.74841687 5.99111177 0 3.37360973 0 0 Z " fill="#0B0807" transform="translate(131,165)"/>
<path d="M0 0 C1.5625 1.8125 1.5625 1.8125 3 4 C2.67 4.99 2.34 5.98 2 7 C-1.3 7 -4.6 7 -8 7 C-7.67 5.35 -7.34 3.7 -7 2 C-4.69 2 -2.38 2 0 2 C0 1.34 0 0.68 0 0 Z " fill="#242325" transform="translate(273,68)"/>
<path d="M0 0 C2.2668041 1.97431325 3.79970992 3.50595115 4.9375 6.3125 C5.02557608 10.09977155 3.70182424 12.65938205 2 16 C-0.61973266 18.61973266 -2.35166422 18.70813314 -6 19 C-8.375 18.0625 -8.375 18.0625 -10 17 C-10 16.67 -10 16.34 -10 16 C-9.38511719 15.97421875 -8.77023438 15.9484375 -8.13671875 15.921875 C-3.15539163 15.67203932 -3.15539163 15.67203932 1.0625 13.3125 C2.69004545 9.29788789 2.40822849 6.17365691 1 2.125 C0.505 1.073125 0.505 1.073125 0 0 Z " fill="#0C0807" transform="translate(230,182)"/>
<path d="M0 0 C0.66 0.33 1.32 0.66 2 1 C2.6328125 3.50390625 2.6328125 3.50390625 3.125 6.5625 C3.29257813 7.57441406 3.46015625 8.58632812 3.6328125 9.62890625 C3.75398437 10.41136719 3.87515625 11.19382812 4 12 C3.01 11.34 2.02 10.68 1 10 C1 9.34 1 8.68 1 8 C0.34 8 -0.32 8 -1 8 C-1 10.31 -1 12.62 -1 15 C-1.66 15 -2.32 15 -3 15 C-4.2288865 11.48538462 -3.75329849 9.31643613 -2.625 5.8125 C-2.34914062 4.93207031 -2.07328125 4.05164063 -1.7890625 3.14453125 C-1 1 -1 1 0 0 Z " fill="#020202" transform="translate(235,63)"/>
<path d="M0 0 C1.41303235 4.23909706 0.96865112 8.2396555 0.83984375 12.67578125 C1.0078507 16.16294989 1.62718828 18.79677265 3 22 C5.01508358 22.73323796 5.01508358 22.73323796 7 23 C7.33 23.99 7.66 24.98 8 26 C5.37843912 25.63108098 4.2731196 25.32833246 2.55078125 23.2578125 C2.14214844 22.55398437 1.73351562 21.85015625 1.3125 21.125 C0.89613281 20.42632812 0.47976562 19.72765625 0.05078125 19.0078125 C-2.36879626 14.38453056 -2.38396503 10.09869842 -2 5 C-1 1.9375 -1 1.9375 0 0 Z " fill="#29090B" transform="translate(200,96)"/>
<path d="M0 0 C0.66 0 1.32 0 2 0 C2.391875 0.66 2.78375 1.32 3.1875 2 C5.28020044 5.46378004 7.83125427 8.07378479 10.671875 10.9375 C12 13 12 13 11.703125 15.75 C11.35507813 16.86375 11.35507813 16.86375 11 18 C9.35 17.67 7.7 17.34 6 17 C5.67 15.68 5.34 14.36 5 13 C7.475 14.98 7.475 14.98 10 17 C9.81584568 14.05908413 9.81584568 14.05908413 9 11 C7.04836882 9.56362302 7.04836882 9.56362302 5 9 C5 8.34 5 7.68 5 7 C4.34 7 3.68 7 3 7 C0 2.61538462 0 2.61538462 0 0 Z " fill="#0A0606" transform="translate(217,176)"/>
<path d="M0 0 C2.97 0.495 2.97 0.495 6 1 C7.125 5.75 7.125 5.75 6 8 C4.02111039 8.72693904 2.02045442 9.39816251 0 10 C-1.125 2.25 -1.125 2.25 0 0 Z " fill="#3D2423" transform="translate(127,171)"/>
<path d="M0 0 C2.31 0 4.62 0 7 0 C7 0.33 7 0.66 7 1 C5.35 1 3.7 1 2 1 C2.495 1.94875 2.99 2.8975 3.5 3.875 C5 7 5 7 5 9 C8.3 9 11.6 9 15 9 C14.67 9.66 14.34 10.32 14 11 C10.94730305 11.29352855 8.04517841 11.4147743 5 11 C1.25243313 7.81456816 0.44754862 4.81114769 0 0 Z " fill="#0B0807" transform="translate(183,189)"/>
<path d="M0 0 C0.66 0 1.32 0 2 0 C2.95261487 4.76307437 3.08333357 9.1666528 3 14 C1.68 13.67 0.36 13.34 -1 13 C-1.08171488 8.83254097 -0.95553278 5.0610143 0 1 C0 0.67 0 0.34 0 0 Z " fill="#392725" transform="translate(127,185)"/>
<path d="M0 0 C0.33 0 0.66 0 1 0 C1.33 7.92 1.66 15.84 2 24 C4.64 24.33 7.28 24.66 10 25 C10 25.33 10 25.66 10 26 C8.35425434 26.02688151 6.70838587 26.04634123 5.0625 26.0625 C4.14597656 26.07410156 3.22945313 26.08570313 2.28515625 26.09765625 C0 26 0 26 -1 25 C-1.01674294 23.14416777 -0.96275607 21.28760637 -0.87890625 19.43359375 C-0.83056641 18.30888672 -0.78222656 17.18417969 -0.73242188 16.02539062 C-0.67634766 14.84138672 -0.62027344 13.65738281 -0.5625 12.4375 C-0.51029297 11.24962891 -0.45808594 10.06175781 -0.40429688 8.83789062 C-0.2741434 5.89168934 -0.1391636 2.94578724 0 0 Z " fill="#561517" transform="translate(375,131)"/>
<path d="M0 0 C1.65 0 3.3 0 5 0 C4.67 1.32 4.34 2.64 4 4 C3.01 3.34 2.02 2.68 1 2 C1 8.6 1 15.2 1 22 C2.32 22 3.64 22 5 22 C5 22.66 5 23.32 5 24 C3.35 24 1.7 24 0 24 C0 16.08 0 8.16 0 0 Z " fill="#0F0D0C" transform="translate(281,170)"/>
<path d="M0 0 C4.20626034 1.50223584 5.73900021 4.28550034 8 8 C7.67 8.66 7.34 9.32 7 10 C6.071875 9.505 5.14375 9.01 4.1875 8.5 C1.13472484 6.78710148 1.13472484 6.78710148 -2 7 C-1.34 4.69 -0.68 2.38 0 0 Z " fill="#791414" transform="translate(222,122)"/>
<path d="M0 0 C2.87928523 0.99285697 3.93111237 1.89534379 5.625 4.46875 C7.4181475 9.0738788 7.33099809 12.98870606 7.1875 17.875 C7.17396484 18.75414063 7.16042969 19.63328125 7.14648438 20.5390625 C7.11136623 22.69297552 7.05756694 24.84657004 7 27 C6.67 27 6.34 27 6 27 C6 21.06 6 15.12 6 9 C5.34 9 4.68 9 4 9 C4 8.34 4 7.68 4 7 C3.01 6.67 2.02 6.34 1 6 C1.66 5.34 2.32 4.68 3 4 C2.01 2.68 1.02 1.36 0 0 Z " fill="#3C0D0E" transform="translate(185,92)"/>
<path d="M0 0 C1.32 0 2.64 0 4 0 C3.34 4.95 2.68 9.9 2 15 C1.67 14.34 1.34 13.68 1 13 C0.34 13 -0.32 13 -1 13 C-1.05399736 11.54207116 -1.09279177 10.08357288 -1.125 8.625 C-1.15980469 7.40683594 -1.15980469 7.40683594 -1.1953125 6.1640625 C-1 4 -1 4 1 2 C0.67 1.34 0.34 0.68 0 0 Z " fill="#000000" transform="translate(311,171)"/>
<path d="M0 0 C0.66 0.33 1.32 0.66 2 1 C2.08674429 5.45821166 2.14030513 9.91620804 2.1875 14.375 C2.21263672 15.64601562 2.23777344 16.91703125 2.26367188 18.2265625 C2.27333984 19.43828125 2.28300781 20.65 2.29296875 21.8984375 C2.3086792 23.01911621 2.32438965 24.13979492 2.34057617 25.29443359 C2.22818604 26.18727051 2.1157959 27.08010742 2 28 C1.01 28.66 0.02 29.32 -1 30 C-0.83701416 29.46536133 -0.67402832 28.93072266 -0.50610352 28.37988281 C0.1050107 25.5062015 0.1120605 22.86034246 0.09765625 19.921875 C0.09443359 18.76171875 0.09121094 17.6015625 0.08789062 16.40625 C0.07951172 15.1996875 0.07113281 13.993125 0.0625 12.75 C0.05798828 11.52796875 0.05347656 10.3059375 0.04882812 9.046875 C0.03704815 6.03120054 0.02059853 3.01562502 0 0 Z " fill="#140F0F" transform="translate(319,168)"/>
<path d="M0 0 C2.81579728 0.97096458 3.96750077 1.9558939 5.75 4.375 C7.5457949 9.5828052 7.23838409 14.54365313 7 20 C6.67 20 6.34 20 6 20 C5.67 16.37 5.34 12.74 5 9 C4.34 9 3.68 9 3 9 C2.690625 7.88625 2.38125 6.7725 2.0625 5.625 C1.17673517 2.2054845 1.17673517 2.2054845 0 0 Z " fill="#491617" transform="translate(444,92)"/>
<path d="M0 0 C2 2 2 2 2.1875 5.875 C2.120382 8.71460774 1.90494365 11.28516905 1 14 C0.34 14 -0.32 14 -1 14 C-1 13.34 -1 12.68 -1 12 C-2.32 11.67 -3.64 11.34 -5 11 C-4.03320312 10.64808594 -4.03320312 10.64808594 -3.046875 10.2890625 C-0.7922092 9.18838927 -0.7922092 9.18838927 -0.390625 6.8359375 C-0.34421875 6.02382812 -0.2978125 5.21171875 -0.25 4.375 C-0.19328125 3.55773437 -0.1365625 2.74046875 -0.078125 1.8984375 C-0.05234375 1.27195312 -0.0265625 0.64546875 0 0 Z " fill="#841716" transform="translate(392,107)"/>
<path d="M0 0 C2.97 0 5.94 0 9 0 C9.33 1.98 9.66 3.96 10 6 C9.34 6 8.68 6 8 6 C8 5.01 8 4.02 8 3 C5.03 2.505 5.03 2.505 2 2 C1.67 3.65 1.34 5.3 1 7 C0.67 7 0.34 7 0 7 C0 4.69 0 2.38 0 0 Z " fill="#9D1A20" transform="translate(199,138)"/>
<path d="M0 0 C0.99 0.66 1.98 1.32 3 2 C1.02 4.64 -0.96 7.28 -3 10 C-3.99 9.67 -4.98 9.34 -6 9 C-4.68775452 5.06326356 -3.08089673 2.77280706 0 0 Z " fill="#151313" transform="translate(299,101)"/>
<path d="M0 0 C-0.65784963 3.29680965 -1.89420573 5.84117922 -3.5625 8.75 C-4.01753906 9.54921875 -4.47257813 10.3484375 -4.94140625 11.171875 C-5.29074219 11.77515625 -5.64007813 12.3784375 -6 13 C-7.20153575 9.02634963 -6.637386 6.84785711 -5 3 C-2.6 0 -2.6 0 0 0 Z " fill="#721418" transform="translate(207,90)"/>
<path d="M0 0 C-0.33 0.66 -0.66 1.32 -1 2 C-2.98 2 -4.96 2 -7 2 C-6.50168276 5.68754757 -5.89932357 7.60490662 -3 10 C-4.65 10 -6.3 10 -8 10 C-8 6.7 -8 3.4 -8 0 C-2.25 -1.125 -2.25 -1.125 0 0 Z " fill="#0B0807" transform="translate(160,184)"/>
<path d="M0 0 C0.78375 0.04125 1.5675 0.0825 2.375 0.125 C2.705 0.785 3.035 1.445 3.375 2.125 C1.065 2.455 -1.245 2.785 -3.625 3.125 C-2.965 7.085 -2.305 11.045 -1.625 15.125 C-2.285 15.125 -2.945 15.125 -3.625 15.125 C-4.6057664 12.18270079 -4.78988128 10.1341216 -4.8125 7.0625 C-4.82667969 6.18464844 -4.84085938 5.30679688 -4.85546875 4.40234375 C-4.50405589 0.92990818 -3.43088131 0.1633753 0 0 Z " fill="#1B0808" transform="translate(214.625,97.875)"/>
<path d="M0 0 C2.87579981 4.31369972 4 7.80734761 4 13 C3.01 13 2.02 13 1 13 C-0.10228696 8.59085217 -0.07654536 4.51617599 0 0 Z " fill="#4A0E11" transform="translate(388,93)"/>
<path d="M0 0 C3.3 0 6.6 0 10 0 C10.33 1.65 10.66 3.3 11 5 C10.34 4.34 9.68 3.68 9 3 C6.34462628 2.43479997 3.70855287 2.26211802 1 2 C0.67 2.99 0.34 3.98 0 5 C0 3.35 0 1.7 0 0 Z " fill="#150505" transform="translate(170,100)"/>
<path d="M0 0 C1.0625 1.875 1.0625 1.875 2 4 C1.67 4.66 1.34 5.32 1 6 C-0.98 6 -2.96 6 -5 6 C-5.33 5.01 -5.66 4.02 -6 3 C-6.99 3 -7.98 3 -9 3 C-9 2.34 -9 1.68 -9 1 C-5.85262818 1.69941596 -2.97411124 2.76078698 0 4 C0 2.68 0 1.36 0 0 Z " fill="#060404" transform="translate(200,169)"/>
<path d="M0 0 C0.66 0 1.32 0 2 0 C2.6987693 1.76641683 3.38366583 3.53832664 4.0625 5.3125 C4.44535156 6.29863281 4.82820312 7.28476563 5.22265625 8.30078125 C6 11 6 11 5 14 C4.731875 13.443125 4.46375 12.88625 4.1875 12.3125 C3.01729551 9.92616415 3.01729551 9.92616415 1.375 7.5625 C-0.12991342 4.75788862 -0.2682825 3.12996247 0 0 Z " fill="#120C0B" transform="translate(130,179)"/>
<path d="M0 0 C2.97 0.495 2.97 0.495 6 1 C6 1.99 6 2.98 6 4 C3.69 4.33 1.38 4.66 -1 5 C-0.67 3.35 -0.34 1.7 0 0 Z " fill="#302E31" transform="translate(266,70)"/>
<path d="M0 0 C0.8214856 2.75197675 1.04631835 3.83402593 0.25 6.6875 C-1 9 -1 9 -4 10 C-4.33 10.66 -4.66 11.32 -5 12 C-4.35550393 8.98782888 -3.34977818 6.48344164 -1.9375 3.75 C-1.57527344 3.04359375 -1.21304687 2.3371875 -0.83984375 1.609375 C-0.56269531 1.07828125 -0.28554688 0.5471875 0 0 Z " fill="#4B1011" transform="translate(333,91)"/>
<path d="M0 0 C0.66 0 1.32 0 2 0 C2 0.99 2 1.98 2 3 C2.66 3 3.32 3 4 3 C4 4.32 4 5.64 4 7 C2.68 6.67 1.36 6.34 0 6 C-0.38218767 4.34385343 -0.71395102 2.67542976 -1 1 C-0.67 0.67 -0.34 0.34 0 0 Z " fill="#B81B1C" transform="translate(334,94)"/>
<path d="M0 0 C2.97 0 5.94 0 9 0 C9 0.33 9 0.66 9 1 C6.69 1.33 4.38 1.66 2 2 C1.67 4.64 1.34 7.28 1 10 C0.67 10 0.34 10 0 10 C0 6.7 0 3.4 0 0 Z " fill="#A51F20" transform="translate(357,90)"/>
<path d="M0 0 C1.2375 0.309375 2.475 0.61875 3.75 0.9375 C4.79414063 1.19853516 4.79414063 1.19853516 5.859375 1.46484375 C7.90625 1.9765625 9.953125 2.48828125 12 3 C10.12356239 4.87643761 7.50194299 4.17984987 5.0078125 4.23046875 C3 4 3 4 0 2 C0 1.34 0 0.68 0 0 Z " fill="#0B0606" transform="translate(306,196)"/>
<path d="M0 0 C0.66 0 1.32 0 2 0 C1.95875 0.94875 1.9175 1.8975 1.875 2.875 C1.65026182 6.10244856 1.65026182 6.10244856 4 8 C3.34 8 2.68 8 2 8 C2 8.66 2 9.32 2 10 C1.01 9.67 0.02 9.34 -1 9 C-1.125 2.25 -1.125 2.25 0 0 Z " fill="#121212" transform="translate(234,71)"/>
<path d="M0 0 C0.66 0 1.32 0 2 0 C2.66 0.66 3.32 1.32 4 2 C4.99 1.34 5.98 0.68 7 0 C6.67 1.98 6.34 3.96 6 6 C4.35 6 2.7 6 1 6 C0.67 4.02 0.34 2.04 0 0 Z " fill="#2D1D19" transform="translate(184,170)"/>
<path d="M0 0 C-0.33 1.32 -0.66 2.64 -1 4 C-2.65 4.33 -4.3 4.66 -6 5 C-5.625 3.0625 -5.625 3.0625 -5 1 C-3 0 -3 0 0 0 Z " fill="#AE1C21" transform="translate(225,151)"/>
<path d="M0 0 C2.375 0.1875 2.375 0.1875 5 1 C6.3125 3.5625 6.3125 3.5625 7 6 C4.0625 4.6875 4.0625 4.6875 1 3 C0.67 2.01 0.34 1.02 0 0 Z " fill="#651517" transform="translate(223,126)"/>
<path d="M0 0 C2.31 1.98 4.62 3.96 7 6 C3 7 3 7 1 6 C0.375 2.9375 0.375 2.9375 0 0 Z " fill="#050404" transform="translate(245,89)"/>
<path d="M0 0 C0.66 0.33 1.32 0.66 2 1 C2 3.64 2 6.28 2 9 C0.68 7.68 -0.64 6.36 -2 5 C-1.34 3.35 -0.68 1.7 0 0 Z " fill="#3E2726" transform="translate(82,188)"/>
<path d="M0 0 C0.66 0 1.32 0 2 0 C2.125 6.75 2.125 6.75 1 9 C0.34 9 -0.32 9 -1 9 C-0.67 6.03 -0.34 3.06 0 0 Z " fill="#1E1817" transform="translate(218,167)"/>
<path d="M0 0 C2 1 2 1 3.125 3.375 C4 6 4 6 4 9 C3.01 8.67 2.02 8.34 1 8 C0.67 5.36 0.34 2.72 0 0 Z " fill="#390B0C" transform="translate(340,135)"/>
<path d="M0 0 C0.66 0 1.32 0 2 0 C2.33 0.99 2.66 1.98 3 3 C-0.21451269 4.60725635 -3.43612536 4.05748185 -7 4 C-7 3.67 -7 3.34 -7 3 C-5.02 3 -3.04 3 -1 3 C-0.67 2.01 -0.34 1.02 0 0 Z " fill="#9F1917" transform="translate(177,96)"/>
</svg>
