<svg width="32" height="32" viewBox="0 0 32 32" fill="none" xmlns="http://www.w3.org/2000/svg">
<g clip-path="url(#clip0_399_396)">
<path d="M30.6667 22.6667H1.33333C0.979711 22.6667 0.640573 22.8072 0.390524 23.0572C0.140476 23.3073 0 23.6464 0 24C0 24.3536 0.140476 24.6928 0.390524 24.9428C0.640573 25.1929 0.979711 25.3333 1.33333 25.3333H30.6667C31.0203 25.3333 31.3594 25.1929 31.6095 24.9428C31.8595 24.6928 32 24.3536 32 24C32 23.6464 31.8595 23.3073 31.6095 23.0572C31.3594 22.8072 31.0203 22.6667 30.6667 22.6667ZM9.17333 9.33335H5.33333V22.6667H2.66667V9.33335C2.66667 7.86668 3.86667 6.66668 5.33333 6.66668H9.8C9.21333 7.42668 8.97333 8.40001 9.17333 9.33335ZM29.3333 11.3467V22.6667H26.6667V17.64C27.28 16.28 27.6667 14.72 27.84 13.0267C28.3733 12.5067 28.8667 11.9467 29.3333 11.3467ZM30.52 0.362679C30.4561 0.299968 30.3805 0.250491 30.2974 0.217085C30.2144 0.183679 30.1255 0.167003 30.036 0.168012C26.2667 0.238679 21.8693 2.43868 19.0773 5.63468C16.0573 5.74268 13.536 6.65335 11.964 8.22535C11.8796 8.30882 11.8192 8.41337 11.7889 8.52814C11.7586 8.64291 11.7597 8.76369 11.792 8.8779C11.8242 8.99212 11.8865 9.09561 11.9724 9.17758C12.0582 9.25956 12.1644 9.31703 12.28 9.34401L15.1187 10.024L15.1013 10.0427C14.9871 10.1696 14.9259 10.3355 14.9304 10.5061C14.9349 10.6768 15.0046 10.8393 15.1253 10.96L19.9213 15.756C19.9831 15.8182 20.0567 15.8674 20.1377 15.9008C20.2188 15.9343 20.3057 15.9512 20.3933 15.9507C20.5533 15.9507 20.712 15.8947 20.8387 15.78L20.8573 15.7627L21.5373 18.6013C21.5646 18.717 21.6223 18.8233 21.7045 18.9092C21.7867 18.9951 21.8903 19.0574 22.0047 19.0898C22.119 19.1222 22.24 19.1234 22.355 19.0933C22.47 19.0632 22.5748 19.0029 22.6587 18.9187C24.232 17.3453 25.1413 14.8253 25.2493 11.804C28.4493 9.00268 30.6453 4.61068 30.716 0.845345C30.7173 0.755876 30.7006 0.667064 30.6669 0.584161C30.6332 0.501258 30.5833 0.425946 30.52 0.362679Z" fill="white"/>
<path d="M13.0025 13.9627C12.1078 14.8574 10.9625 18.5734 10.7425 19.3094C10.7089 19.4246 10.707 19.5467 10.7369 19.6629C10.7668 19.7791 10.8273 19.8852 10.9122 19.97C10.9972 20.0547 11.1033 20.1151 11.2196 20.1448C11.3358 20.1745 11.458 20.1724 11.5731 20.1387C12.3091 19.9187 16.0238 18.7747 16.9198 17.8787C17.4384 17.3588 17.7297 16.6544 17.7297 15.92C17.7297 15.1856 17.4384 14.4813 16.9198 13.9613C16.3997 13.4429 15.6952 13.1518 14.9608 13.1521C14.2265 13.1523 13.5222 13.4439 13.0025 13.9627Z" fill="white"/>
</g>
<defs>
<clipPath id="clip0_399_396">
<rect width="32" height="32" fill="white"/>
</clipPath>
</defs>
</svg>
