<svg width="32" height="32" viewBox="0 0 32 32" fill="none" xmlns="http://www.w3.org/2000/svg">
<path d="M23.4502 20.93C23.1715 20.6504 22.8403 20.4284 22.4756 20.277C22.111 20.1256 21.72 20.0477 21.3252 20.0477C20.9303 20.0477 20.5394 20.1256 20.1747 20.277C19.8101 20.4284 19.4789 20.6504 19.2002 20.93L17.7502 22.38C16.1176 21.3439 14.605 20.1298 13.2402 18.76C11.8704 17.3952 10.6563 15.8826 9.62016 14.25L11.0702 12.8C11.3498 12.5213 11.5718 12.1901 11.7232 11.8255C11.8746 11.4608 11.9525 11.0699 11.9525 10.675C11.9525 10.2802 11.8746 9.88923 11.7232 9.52457C11.5718 9.15992 11.3498 8.82874 11.0702 8.55003L8.24016 5.73003C7.96539 5.44942 7.63701 5.22692 7.27453 5.07575C6.91206 4.92457 6.52289 4.84781 6.13016 4.85003C5.73464 4.84906 5.34284 4.92631 4.97729 5.07734C4.61174 5.22836 4.27966 5.45018 4.00016 5.73003L2.64016 7.08003C1.99193 7.777 1.50813 8.61038 1.22433 9.5189C0.940521 10.4274 0.863923 11.388 1.00016 12.33C1.32016 16.08 3.78016 20.59 7.57016 24.39C11.3602 28.19 15.9202 30.64 19.6702 31C19.95 31.015 20.2304 31.015 20.5102 31C21.3174 31.0339 22.1233 30.9063 22.8805 30.6247C23.6378 30.3431 24.3312 29.9131 24.9202 29.36L26.2702 28C26.55 27.7205 26.7718 27.3885 26.9229 27.0229C27.0739 26.6574 27.1511 26.2655 27.1502 25.87C27.1524 25.4773 27.0756 25.0881 26.9244 24.7257C26.7733 24.3632 26.5508 24.0348 26.2702 23.76L23.4502 20.93ZM26.6002 5.39003C25.2104 3.995 23.5583 2.88887 21.739 2.13541C19.9197 1.38196 17.9693 0.996078 16.0002 1.00003C15.7349 1.00003 15.4806 1.10539 15.2931 1.29292C15.1055 1.48046 15.0002 1.73481 15.0002 2.00003C15.0002 2.26525 15.1055 2.5196 15.2931 2.70714C15.4806 2.89467 15.7349 3.00003 16.0002 3.00003C17.7166 2.99997 19.4161 3.33983 21.0006 4.00001C22.585 4.66019 24.0231 5.62761 25.2317 6.84645C26.4403 8.06529 27.3955 9.51141 28.0423 11.1014C28.6892 12.6913 29.0147 14.3936 29.0002 16.11C29.0002 16.3752 29.1055 16.6296 29.2931 16.8171C29.4806 17.0047 29.7349 17.11 30.0002 17.11C30.2654 17.11 30.5197 17.0047 30.7073 16.8171C30.8948 16.6296 31.0002 16.3752 31.0002 16.11C31.0193 14.12 30.6399 12.1462 29.8842 10.3051C29.1285 8.46399 28.0119 6.79279 26.6002 5.39003Z" fill="white"/>
<path d="M20.9102 11.1101C21.4777 11.6742 21.9267 12.3461 22.2306 13.0862C22.5346 13.8264 22.6874 14.6199 22.6802 15.4201C22.6802 15.6853 22.7855 15.9396 22.9731 16.1272C23.1606 16.3147 23.415 16.4201 23.6802 16.4201C23.9454 16.4201 24.1997 16.3147 24.3873 16.1272C24.5748 15.9396 24.6802 15.6853 24.6802 15.4201C24.6934 14.3611 24.4963 13.3101 24.1002 12.3279C23.704 11.3457 23.1169 10.452 22.3727 9.69846C21.6285 8.94497 20.7421 8.34673 19.7649 7.93845C18.7877 7.53018 17.7392 7.31999 16.6802 7.32007C16.415 7.32007 16.1606 7.42542 15.9731 7.61296C15.7855 7.8005 15.6802 8.05485 15.6802 8.32007C15.6802 8.58528 15.7855 8.83964 15.9731 9.02718C16.1606 9.21471 16.415 9.32007 16.6802 9.32007C17.4683 9.326 18.2474 9.48714 18.9732 9.79427C19.699 10.1014 20.3572 10.5485 20.9102 11.1101Z" fill="white"/>
</svg>
