<svg width="32" height="32" viewBox="0 0 32 32" fill="none" xmlns="http://www.w3.org/2000/svg">
<g clip-path="url(#clip0_399_377)">
<path d="M24.7552 14.4183C25.1913 13.9816 25.1913 13.2742 24.7552 12.8374L23.1623 11.2445C22.7256 10.8085 22.0182 10.8085 21.5815 11.2445L20.7902 12.0347L23.9645 15.2091L24.7552 14.4183ZM7.73541 27.1125L7.27832 28.7237L8.88949 28.2666C8.67045 27.7475 8.25738 27.3344 7.73826 27.1153L7.73541 27.1125ZM16.4096 24.3798L21.5808 29.551C21.7977 29.7676 22.149 29.7676 22.3658 29.551L25.5516 26.3652C25.7683 26.1484 25.7683 25.797 25.5516 25.5802L24.3632 24.3912L23.1742 25.5802C22.95 25.7967 22.5937 25.7936 22.3733 25.5732C22.1529 25.3528 22.1499 24.9965 22.3664 24.7723L23.5554 23.5833L22.3715 22.3989L21.5808 23.1897C21.3566 23.4062 21.0003 23.4031 20.7798 23.1827C20.5594 22.9623 20.5564 22.606 20.7729 22.3818L21.5637 21.591L20.3804 20.4078L16.4096 24.3798ZM8.40676 24.762L8.05139 26.0069C8.49526 26.173 8.89835 26.4323 9.23346 26.7674C9.56857 27.1025 9.82791 27.5056 9.99397 27.9495L11.2389 27.5941L10.3899 25.6127L8.40676 24.762ZM18.7948 14.0263L19.9779 12.8432L23.1521 16.0173L21.969 17.2005L18.7948 14.0263ZM19.9822 16.8249L11.5006 25.3065L12.2102 26.9628L21.1655 18.0081L19.9822 16.8249ZM10.6927 24.4986L19.1743 16.017L17.9911 14.8337L9.0364 23.789L10.6927 24.4986Z" fill="white"/>
<path d="M31.735 10.307L16.3086 0.097607C16.2177 0.0355677 16.1102 0.00232348 16.0001 0.00219727C15.8931 0.00240202 15.7887 0.0346424 15.7002 0.0947636L0.260686 10.3099C0.130106 10.4048 0.0407529 10.5461 0.0109089 10.7048C-0.0189351 10.8635 0.0129867 11.0275 0.100142 11.1634C0.139927 11.2281 0.192469 11.2839 0.254556 11.3275C0.316643 11.3711 0.386972 11.4016 0.461246 11.4171C0.603465 11.4473 0.751845 11.4176 0.871476 11.3348L15.6847 1.54481C15.7782 1.48379 15.8874 1.45129 15.999 1.45129C16.1106 1.45129 16.2198 1.48379 16.3132 1.54481L31.123 11.3308C31.1822 11.3724 31.2491 11.4015 31.3198 11.4164C31.3905 11.4314 31.4635 11.4318 31.5344 11.4177C31.6098 11.4018 31.6813 11.3708 31.7444 11.3267C31.8075 11.2825 31.8611 11.226 31.9018 11.1606C32.0814 10.8768 32.0082 10.5023 31.735 10.307Z" fill="white"/>
<path d="M2.85938 11.3909V31.4262C2.85938 31.7418 3.11517 31.9976 3.43073 31.9976H28.5699C28.8855 31.9976 29.1413 31.7418 29.1413 31.4262V11.3903L16.0003 2.7041L2.85938 11.3909ZM20.7733 10.4361C20.983 10.2255 21.2323 10.0586 21.5069 9.94504C21.7815 9.83147 22.0759 9.77352 22.3731 9.77453C22.6703 9.77354 22.9647 9.83156 23.2393 9.94523C23.514 10.0589 23.7633 10.226 23.9728 10.4367L25.5657 12.0296C25.776 12.2396 25.9428 12.489 26.0566 12.7635C26.1704 13.038 26.229 13.3322 26.229 13.6294C26.229 13.9265 26.1704 14.2208 26.0566 14.4953C25.9428 14.7698 25.776 15.0191 25.5657 15.2291L21.1887 19.5993L26.3599 24.7705C27.0206 25.434 27.0206 26.5068 26.3599 27.1702L23.1741 30.356C22.5104 31.0161 21.4381 31.0161 20.7744 30.356L15.6004 25.1876L12.4197 28.3677C12.3513 28.4367 12.2662 28.4868 12.1728 28.5134L7.50781 29.8452C7.40986 29.8731 7.30855 29.8873 7.20673 29.8875C7.03698 29.8875 6.86954 29.8481 6.71761 29.7724C6.56568 29.6967 6.43341 29.5867 6.33121 29.4512C6.22902 29.3156 6.15969 29.1582 6.12869 28.9913C6.09769 28.8244 6.10588 28.6526 6.15259 28.4894L7.48727 23.8272C7.51384 23.7338 7.56401 23.6488 7.63297 23.5804L10.8119 20.3991L5.64068 15.2279C4.97998 14.5644 4.97998 13.4917 5.64068 12.8282L8.82648 9.64242C9.49003 8.98203 10.5625 8.98203 11.2262 9.64242L16.4002 14.8108L20.7733 10.4361Z" fill="white"/>
<path d="M11.6084 11.6366L10.4194 10.4476C10.2026 10.231 9.85123 10.231 9.6344 10.4476L6.4486 13.6334C6.23198 13.8503 6.23198 14.2016 6.4486 14.4184L11.6193 19.5897L15.5901 15.6189L14.4068 14.4356L13.6161 15.2264C13.3919 15.4429 13.0356 15.4398 12.8151 15.2194C12.5947 14.999 12.5917 14.6427 12.8082 14.4185L13.6006 13.6277L12.4174 12.4445L11.2284 13.6335C11.0042 13.85 10.6479 13.8469 10.4275 13.6265C10.2071 13.4061 10.204 13.0498 10.4205 12.8256L11.6084 11.6366Z" fill="white"/>
</g>
<defs>
<clipPath id="clip0_399_377">
<rect width="32" height="32" fill="white"/>
</clipPath>
</defs>
</svg>
