<svg width="32" height="32" viewBox="0 0 32 32" fill="none" xmlns="http://www.w3.org/2000/svg">
<path d="M15.9998 2.66675C13.3628 2.66675 10.7849 3.44873 8.59224 4.91382C6.39958 6.37891 4.69062 8.46129 3.68145 10.8976C2.67228 13.334 2.40824 16.0149 2.92271 18.6013C3.43718 21.1877 4.70705 23.5635 6.57175 25.4282C8.43645 27.2929 10.8122 28.5627 13.3986 29.0772C15.9851 29.5917 18.6659 29.3276 21.1023 28.3185C23.5386 27.3093 25.621 25.6003 27.0861 23.4077C28.5512 21.215 29.3332 18.6372 29.3332 16.0001C29.3332 14.2491 28.9883 12.5153 28.3182 10.8976C27.6482 9.27996 26.666 7.81011 25.4279 6.57199C24.1898 5.33388 22.72 4.35175 21.1023 3.68169C19.4846 3.01162 17.7508 2.66675 15.9998 2.66675ZM11.3732 17.9601C11.4714 18.0516 11.5502 18.162 11.6049 18.2847C11.6595 18.4074 11.6889 18.5398 11.6913 18.6741C11.6937 18.8083 11.669 18.9417 11.6187 19.0662C11.5684 19.1907 11.4935 19.3038 11.3986 19.3988C11.3036 19.4938 11.1905 19.5686 11.066 19.6189C10.9415 19.6692 10.8081 19.6939 10.6738 19.6915C10.5395 19.6892 10.4071 19.6598 10.2845 19.6051C10.1618 19.5505 10.0514 19.4717 9.95984 19.3734L7.29318 16.7067C7.20029 16.614 7.1266 16.5038 7.07633 16.3826C7.02605 16.2613 7.00017 16.1313 7.00017 16.0001C7.00017 15.8688 7.02605 15.7388 7.07633 15.6176C7.1266 15.4963 7.20029 15.3862 7.29318 15.2934L9.95984 12.6267C10.0514 12.5285 10.1618 12.4497 10.2845 12.395C10.4071 12.3404 10.5395 12.311 10.6738 12.3086C10.8081 12.3063 10.9415 12.331 11.066 12.3813C11.1905 12.4315 11.3036 12.5064 11.3986 12.6014C11.4935 12.6963 11.5684 12.8094 11.6187 12.934C11.669 13.0585 11.6937 13.1918 11.6913 13.3261C11.6889 13.4604 11.6595 13.5928 11.6049 13.7155C11.5502 13.8381 11.4714 13.9485 11.3732 14.0401L9.41451 16.0001L11.3732 17.9601ZM18.2518 13.2841L15.5852 19.5054C15.4776 19.7446 15.2803 19.9319 15.0359 20.027C14.7915 20.1221 14.5195 20.1174 14.2785 20.0139C14.0375 19.9104 13.8469 19.7163 13.7476 19.4736C13.6484 19.2308 13.6484 18.9588 13.7478 18.7161L16.4145 12.4947C16.5221 12.2556 16.7194 12.0682 16.9638 11.9731C17.2082 11.878 17.4802 11.8827 17.7212 11.9863C17.9622 12.0898 18.1528 12.2838 18.2521 12.5266C18.3513 12.7693 18.3513 13.0414 18.2518 13.2841ZM24.7065 16.7067L22.0398 19.3734C21.9483 19.4717 21.8379 19.5505 21.7152 19.6051C21.5926 19.6598 21.4601 19.6892 21.3259 19.6915C21.1916 19.6939 21.0582 19.6692 20.9337 19.6189C20.8092 19.5686 20.6961 19.4938 20.6011 19.3988C20.5062 19.3038 20.4313 19.1907 20.381 19.0662C20.3307 18.9417 20.306 18.8083 20.3084 18.6741C20.3108 18.5398 20.3401 18.4074 20.3948 18.2847C20.4495 18.162 20.5283 18.0516 20.6265 17.9601L22.5852 16.0001L20.6265 14.0401C20.5283 13.9485 20.4495 13.8381 20.3948 13.7155C20.3401 13.5928 20.3108 13.4604 20.3084 13.3261C20.306 13.1918 20.3307 13.0585 20.381 12.934C20.4313 12.8094 20.5062 12.6963 20.6011 12.6014C20.6961 12.5064 20.8092 12.4315 20.9337 12.3813C21.0582 12.331 21.1916 12.3063 21.3259 12.3086C21.4601 12.311 21.5926 12.3404 21.7152 12.395C21.8379 12.4497 21.9483 12.5285 22.0398 12.6267L24.7065 15.2934C24.7994 15.3862 24.8731 15.4963 24.9234 15.6176C24.9736 15.7388 24.9995 15.8688 24.9995 16.0001C24.9995 16.1313 24.9736 16.2613 24.9234 16.3826C24.8731 16.5038 24.7994 16.614 24.7065 16.7067Z" fill="white"/>
</svg>
