<svg width="32" height="32" viewBox="0 0 32 32" fill="none" xmlns="http://www.w3.org/2000/svg">
<path fill-rule="evenodd" clip-rule="evenodd" d="M10.0272 5.52797C11.0564 5.4458 12.0334 5.04098 12.8192 4.37117C13.7066 3.61532 14.8343 3.2002 16 3.2002C17.1657 3.2002 18.2933 3.61532 19.1808 4.37117C19.9665 5.04098 20.9436 5.4458 21.9728 5.52797C23.1351 5.62086 24.2263 6.12471 25.0507 6.9492C25.8752 7.77368 26.3791 8.86488 26.472 10.0272C26.5536 11.056 26.9584 12.0336 27.6288 12.8192C28.3846 13.7066 28.7997 14.8343 28.7997 16C28.7997 17.1657 28.3846 18.2933 27.6288 19.1808C26.959 19.9665 26.5541 20.9436 26.472 21.9728C26.3791 23.1351 25.8752 24.2263 25.0507 25.0507C24.2263 25.8752 23.1351 26.3791 21.9728 26.472C20.9436 26.5541 19.9665 26.959 19.1808 27.6288C18.2933 28.3846 17.1657 28.7997 16 28.7997C14.8343 28.7997 13.7066 28.3846 12.8192 27.6288C12.0334 26.959 11.0564 26.5541 10.0272 26.472C8.86488 26.3791 7.77368 25.8752 6.9492 25.0507C6.12471 24.2263 5.62086 23.1351 5.52797 21.9728C5.4458 20.9436 5.04098 19.9665 4.37117 19.1808C3.61532 18.2933 3.2002 17.1657 3.2002 16C3.2002 14.8343 3.61532 13.7066 4.37117 12.8192C5.04098 12.0334 5.4458 11.0564 5.52797 10.0272C5.62086 8.86488 6.12471 7.77368 6.9492 6.9492C7.77368 6.12471 8.86488 5.62086 10.0272 5.52797ZM21.9312 13.9312C22.2226 13.6294 22.3839 13.2252 22.3802 12.8057C22.3766 12.3862 22.2083 11.9849 21.9117 11.6883C21.615 11.3916 21.2137 11.2233 20.7942 11.2197C20.3747 11.216 19.9705 11.3773 19.6688 11.6688L14.4 16.9376L12.3312 14.8688C12.0294 14.5773 11.6252 14.416 11.2057 14.4197C10.7862 14.4233 10.3849 14.5916 10.0883 14.8883C9.79161 15.1849 9.62334 15.5862 9.61969 16.0057C9.61605 16.4252 9.77732 16.8294 10.0688 17.1312L13.2688 20.3312C13.5688 20.6311 13.9757 20.7996 14.4 20.7996C14.8242 20.7996 15.2311 20.6311 15.5312 20.3312L21.9312 13.9312Z" fill="white"/>
</svg>
