<svg width="30" height="30" viewBox="0 0 30 30" fill="none" xmlns="http://www.w3.org/2000/svg">
<path fill-rule="evenodd" clip-rule="evenodd" d="M10.625 4.25C11.0994 4.25 11.5163 4.56448 11.6466 5.02061L12.7986 9.05271C13.3029 10.8176 14.6824 12.1971 16.4473 12.7014L20.4794 13.8534C20.9355 13.9837 21.25 14.4006 21.25 14.875C21.25 15.3494 20.9355 15.7663 20.4794 15.8966L16.4473 17.0486C14.6824 17.5529 13.3029 18.9324 12.7986 20.6973L11.6466 24.7294C11.5163 25.1855 11.0994 25.5 10.625 25.5C10.1506 25.5 9.7337 25.1855 9.60338 24.7294L8.45135 20.6973C7.94711 18.9324 6.56756 17.5529 4.80271 17.0486L0.770609 15.8966C0.314476 15.7663 0 15.3494 0 14.875C0 14.4006 0.314476 13.9837 0.770609 13.8534L4.80271 12.7014C6.56757 12.1971 7.94711 10.8176 8.45135 9.05271L9.60338 5.02061C9.7337 4.56448 10.1506 4.25 10.625 4.25Z" fill="white"/>
<path fill-rule="evenodd" clip-rule="evenodd" d="M23.375 0C23.8625 0 24.2875 0.331816 24.4058 0.804806L24.7725 2.27171C25.1056 3.60408 26.1459 4.6444 27.4783 4.9775L28.9452 5.34422C29.4182 5.46247 29.75 5.88745 29.75 6.375C29.75 6.86255 29.4182 7.28753 28.9452 7.40578L27.4783 7.7725C26.1459 8.1056 25.1056 9.14592 24.7725 10.4783L24.4058 11.9452C24.2875 12.4182 23.8625 12.75 23.375 12.75C22.8875 12.75 22.4625 12.4182 22.3442 11.9452L21.9775 10.4783C21.6444 9.14592 20.6041 8.1056 19.2717 7.7725L17.8048 7.40578C17.3318 7.28753 17 6.86255 17 6.375C17 5.88745 17.3318 5.46247 17.8048 5.34422L19.2717 4.9775C20.6041 4.6444 21.6444 3.60408 21.9775 2.27171L22.3442 0.804806C22.4625 0.331816 22.8875 0 23.375 0Z" fill="white"/>
<path fill-rule="evenodd" clip-rule="evenodd" d="M21.25 19.125C21.7073 19.125 22.1134 19.4176 22.258 19.8515L22.8165 21.527C23.028 22.1616 23.5259 22.6595 24.1605 22.871L25.836 23.4295C26.2699 23.5741 26.5625 23.9802 26.5625 24.4375C26.5625 24.8948 26.2699 25.3009 25.836 25.4455L24.1605 26.004C23.5259 26.2155 23.028 26.7134 22.8165 27.348L22.258 29.0235C22.1134 29.4574 21.7073 29.75 21.25 29.75C20.7927 29.75 20.3866 29.4574 20.242 29.0235L19.6835 27.348C19.472 26.7134 18.9741 26.2155 18.3395 26.004L16.664 25.4455C16.2301 25.3009 15.9375 24.8948 15.9375 24.4375C15.9375 23.9802 16.2301 23.5741 16.664 23.4295L18.3395 22.871C18.9741 22.6595 19.472 22.1616 19.6835 21.527L20.242 19.8515C20.3866 19.4176 20.7927 19.125 21.25 19.125Z" fill="white"/>
</svg>
