<svg width="26" height="28" viewBox="0 0 26 28" fill="none" xmlns="http://www.w3.org/2000/svg">
<path fill-rule="evenodd" clip-rule="evenodd" d="M14.1147 0.427346C13.9422 0.19601 13.683 0.0447938 13.3968 0.00846001C13.1105 -0.0278739 12.8217 0.0538004 12.5969 0.234707C9.94749 2.36653 8.09965 5.45931 7.58373 8.98484C6.65359 8.31056 5.83666 7.48905 5.16743 6.55446C4.98332 6.29736 4.69427 6.13562 4.37884 6.11322C4.06342 6.09081 3.75441 6.21007 3.53581 6.43857C1.3465 8.72707 0 11.833 0 15.2512C0 22.2928 5.70837 28.0012 12.75 28.0012C19.7916 28.0012 25.5 22.2928 25.5 15.2512C25.5 10.0649 22.4036 5.60413 17.963 3.61239C16.3917 2.84528 15.0941 1.74067 14.1147 0.427346ZM18.0625 17.3767C18.0625 20.3107 15.684 22.6892 12.75 22.6892C9.81599 22.6892 7.4375 20.3107 7.4375 17.3767C7.4375 16.7968 7.53041 16.2386 7.70216 15.7162C8.5925 16.3744 9.6159 16.8629 10.7246 17.1339C11.0304 15.1495 12.0226 13.3915 13.4511 12.1101C16.0537 12.4532 18.0625 14.6804 18.0625 17.3767Z" fill="white"/>
</svg>
